<?xml version="1.0" encoding="UTF-8" standalone="no"?>
<!-- Created with Inkscape (http://www.inkscape.org/) -->

<svg
   xmlns:dc="http://purl.org/dc/elements/1.1/"
   xmlns:cc="http://creativecommons.org/ns#"
   xmlns:rdf="http://www.w3.org/1999/02/22-rdf-syntax-ns#"
   xmlns:svg="http://www.w3.org/2000/svg"
   xmlns="http://www.w3.org/2000/svg"
   xmlns:sodipodi="http://sodipodi.sourceforge.net/DTD/sodipodi-0.dtd"
   xmlns:inkscape="http://www.inkscape.org/namespaces/inkscape"
   id="svg2"
   version="1.1"
   inkscape:version="0.91 r13725"
   width="225"
   height="225"
   viewBox="0 0 225 225"
   sodipodi:docname="codewars1.svg">
  <metadata
     id="metadata8">
    <rdf:RDF>
      <cc:Work
         rdf:about="">
        <dc:format>image/svg+xml</dc:format>
        <dc:type
           rdf:resource="http://purl.org/dc/dcmitype/StillImage" />
        <dc:title></dc:title>
      </cc:Work>
    </rdf:RDF>
  </metadata>
  <defs
     id="defs6" />
  <sodipodi:namedview
     pagecolor="#ffffff"
     bordercolor="#666666"
     borderopacity="1"
     objecttolerance="10"
     gridtolerance="10"
     guidetolerance="10"
     inkscape:pageopacity="0"
     inkscape:pageshadow="2"
     inkscape:window-width="1118"
     inkscape:window-height="737"
     id="namedview4"
     showgrid="false"
     inkscape:zoom="2.0977778"
     inkscape:cx="159.59815"
     inkscape:cy="109.5793"
     inkscape:window-x="319"
     inkscape:window-y="148"
     inkscape:window-maximized="0"
     inkscape:current-layer="svg2" />
  <g
     id="g3333"
     transform="translate(-1.6318943e-8,-1.9067797)">
    <path
       style="fill:#e7e7e7"
       d="m 114.9767,224.09699 c -1.1,-0.45734 -4.47005,-1.15126 -7.48899,-1.54205 -3.01895,-0.3908 -6.84395,-1.52296 -8.500006,-2.51593 -1.656054,-0.99297 -4.184819,-2.08079 -5.619478,-2.41738 -1.434659,-0.3366 -5.237352,-2.65336 -8.450429,-5.14837 -3.213078,-2.49501 -7.664266,-5.02225 -9.89153,-5.61609 -2.227263,-0.59384 -6.07457,-1.73956 -8.54957,-2.54604 -2.475,-0.80648 -7.66838,-1.54915 -11.540844,-1.65038 -6.257855,-0.16358 -7.486223,-0.53683 -11.045809,-3.35636 -2.202731,-1.74477 -6.459351,-4.26729 -9.459156,-5.60561 -6.332987,-2.82537 -8.429089,-4.90295 -10.248361,-10.15779 -0.858442,-2.47955 -2.689441,-4.733 -5.261246,-6.47512 -3.012546,-2.04067 -4.143698,-3.60736 -4.787275,-6.6306 -0.463481,-2.17721 -1.700981,-6.78052 -2.75,-10.22957 -2.3608294,-7.76212 -2.5227603,-16.89145 -0.342347,-19.30078 1.428971,-1.579 1.380569,-1.90105 -0.556995,-3.70617 -1.7535486,-1.63368 -2.2240926,-3.55337 -2.7102314,-11.057 C 7.2413887,117.91413 6.8712028,116.61866 3.8314279,112.34316 0.01196158,106.971 -0.51035144,102.25618 2.0424684,96.194576 3.2024048,93.44034 3.4433701,90.791948 2.9721477,85.976695 2.3507337,79.626689 2.4153571,79.384329 5.7725994,75.474019 c 1.8900992,-2.201472 3.76484,-5.497398 4.1660905,-7.32428 0.4012501,-1.826882 1.9605291,-4.750677 3.4650621,-6.497324 1.504534,-1.746646 3.022314,-3.96322 3.372846,-4.92572 0.350531,-0.9625 1.28645,-1.75 2.079821,-1.75 2.755312,0 6.620278,-5.882865 6.620278,-10.076725 0,-4.270277 0.498808,-4.616932 3.44113,-2.391472 4.118254,3.114891 13.088023,0.821815 15.06333,-3.850863 0.739583,-1.749517 3.208084,-4.98094 5.485559,-7.18094 2.277474,-2.2 5.123914,-5.747249 6.325422,-7.882776 1.349141,-2.397926 4.982896,-5.839703 9.50201,-9 4.024598,-2.814473 8.703646,-6.1297235 10.397883,-7.3672235 3.319655,-2.4247323 4.954331,-2.6135451 11.562868,-1.3355659 3.837543,0.7421158 4.698613,0.5227886 8.359807,-2.1293673 l 4.081605,-2.95669924 8.505469,1.68776154 c 4.67801,0.9282689 9.89388,1.4100788 11.59083,1.0706887 2.29114,-0.4582283 3.6129,-0.1127771 5.13473,1.3419956 6.1749,5.9028391 11.49594,10.1003771 14.0206,11.0602521 1.5676,0.596 9.29083,1.361811 17.16275,1.701803 l 14.31257,0.618168 3.73667,3.422661 c 4.98197,4.563308 6.4737,5.268302 11.14744,5.268302 3.28359,0 4.49367,0.605369 7.06574,3.534796 1.70697,1.944138 3.10359,4.188493 3.10359,4.987456 0,0.798962 1.73062,2.545153 3.84583,3.880423 2.22917,1.407214 4.58277,4.039778 5.59893,6.262545 0.96421,2.109129 2.60859,5.664356 3.65417,7.900504 1.04559,2.236149 1.90107,6.189481 1.90107,8.785184 0,2.666064 0.70476,5.795051 1.61979,7.191567 1.33053,2.030648 1.43041,3.21817 0.55934,6.649941 -0.88324,3.479673 -0.75172,4.857117 0.78701,8.242709 1.0161,2.235681 2.33247,6.697586 2.92528,9.915345 0.74579,4.048162 2.0023,6.903395 4.07875,9.268345 3.60037,4.10059 3.75175,4.75691 4.45254,19.3045 0.53182,11.03986 0.46683,11.53273 -1.93621,14.68327 -1.55461,2.0382 -2.4865,4.57232 -2.4865,6.7616 0,6.3641 -2.79608,11.00619 -13.73772,22.80758 -2.89426,3.12167 -5.26228,6.08694 -5.26228,6.58949 0,1.27549 -4.59449,3.23475 -7.58553,3.23475 -1.86146,0 -3.17704,1.10492 -5.20295,4.3698 -1.49133,2.40339 -3.83652,5.09071 -5.21152,5.97183 -8.73807,5.59947 -12.45328,9.04062 -14.5071,13.43699 -3.16602,6.7771 -6.79997,9.99492 -12.20237,10.80506 -3.07703,0.46143 -5.21651,1.49539 -6.66166,3.21943 -5.03215,6.00324 -5.39654,6.19689 -11.66099,6.19689 -3.31766,0 -7.57545,0.64485 -9.46175,1.43299 -4.51508,1.88652 -11.50235,2.72827 -14.00613,1.6873 z m 14.81334,-24.50429 c 2.30266,-1.31674 5.8272,-2.9134 7.8323,-3.54815 2.45641,-0.7776 4.51683,-2.47052 6.31629,-5.18968 1.50532,-2.27471 4.16891,-4.66163 6.10435,-5.47031 2.95802,-1.23594 3.43372,-1.90621 3.43372,-4.83823 0,-1.93661 1.44599,-6.13306 3.35497,-9.73658 2.38527,-4.50257 3.12817,-6.91112 2.57029,-8.33305 -1.16722,-2.97498 -1.0755,-8.35076 0.18258,-10.7015 0.88067,-1.64555 0.69791,-2.81114 -0.89128,-5.68426 -1.09952,-1.98783 -2.30887,-5.07704 -2.68744,-6.8649 -0.37858,-1.78787 -2.2275,-5.09294 -4.10872,-7.34462 -1.88122,-2.25167 -3.4204,-4.62935 -3.4204,-5.28373 0,-1.8035 -5.41342,-4.62099 -8.87861,-4.62099 -2.39973,0 -3.40875,-0.65501 -4.62139,-3 -0.85325,-1.65 -1.9898,-3.05625 -2.52568,-3.125 -5.26759,-0.6758 -6.97414,-0.27797 -6.97058,1.625 0.002,1.1 0.96597,3.575 2.14203,5.5 2.16158,3.53812 4.58052,12.11551 5.51528,19.55674 0.371,2.95339 0.0784,4.41459 -1.07573,5.37245 -0.98282,0.81567 -1.58532,2.89886 -1.58532,5.48136 0,2.47563 -0.96749,5.97589 -2.38469,8.62756 -1.31158,2.45404 -3.7681,7.16189 -5.45894,10.46189 -1.93912,3.78457 -4.42922,6.91091 -6.74386,8.46698 -2.29416,1.54231 -4.39429,4.16606 -5.60302,7 -1.06339,2.49316 -3.34381,5.99552 -5.06762,7.78302 -2.69202,2.79148 -3.84721,3.26093 -8.18804,3.3275 l -5.053833,0.0775 5,1.9186 c 4.246223,1.62937 6.780943,1.84458 16.813343,1.42754 10.07998,-0.41902 12.42763,-0.84235 16,-2.88515 z M 62.476697,178.16783 c 0,-0.99488 0.613234,-2.64752 1.362742,-3.67253 1.290246,-1.76452 1.437029,-1.70819 2.759145,1.05887 1.286828,2.6932 1.866506,2.94382 7.387258,3.19381 4.460002,0.20196 6.885216,-0.22773 9.490855,-1.68154 6.392059,-3.56643 9.472368,-4.96173 12.243901,-5.54617 1.931106,-0.40722 3.179048,-1.62007 4.212907,-4.09444 0.807955,-1.9337 2.855435,-4.68243 4.549955,-6.10827 6.29394,-5.296 9.31745,-15.14818 9.12578,-29.73655 -0.0498,-3.79264 -0.25588,-7.06099 -0.4579,-7.26301 -0.61351,-0.61351 -7.93131,6.68295 -9.60614,9.57812 -2.66965,4.61487 -11.49818,12.01893 -15.166416,12.71934 -1.871148,0.35727 -5.241623,1.70971 -7.489945,3.00541 -2.948166,1.69903 -5.63241,2.35583 -9.627876,2.35583 -3.04701,0 -7.193679,0.69094 -9.214821,1.53543 -4.497491,1.87917 -9.850214,1.11773 -14.069445,-2.00144 -2.532027,-1.87186 -4.169932,-2.19302 -10.5,-2.05887 -6.992034,0.14819 -7.522546,0.31369 -7.83288,2.44363 -0.5426,3.72407 0.581406,6.53612 4.567511,11.42706 3.547619,4.35292 11.665258,9.65419 14.7831,9.65419 0.776546,0 1.872578,0.86078 2.435626,1.91285 0.563049,1.05206 2.941381,2.59154 5.285184,3.42105 5.589025,1.97805 5.761459,1.97378 5.761459,-0.14277 z m 129.011873,-20.8637 c 0.78799,-1.55509 3.40842,-5.65568 5.82317,-9.11242 4.35058,-6.22792 4.38438,-6.34177 3.72105,-12.53587 -0.40332,-3.76608 -0.23882,-7.38343 0.41382,-9.09999 0.85165,-2.24001 0.76022,-3.34208 -0.42766,-5.15501 -0.83098,-1.26824 -1.80916,-4.84382 -2.17373,-7.94572 -0.5599,-4.76389 -1.04391,-5.7847 -3.1163,-6.57263 -1.3494,-0.51304 -5.28194,-3.64885 -8.73897,-6.968466 -6.7852,-6.515484 -11.96613,-8.835688 -15.50303,-6.942799 -1.73326,0.927612 -2.19228,0.686085 -3.24421,-1.707019 -1.73378,-3.944287 -2.45858,-4.25504 -9.96439,-4.272198 -10.65729,-0.02436 -30.44643,7.010742 -32.14079,11.426155 -0.7524,1.960727 -0.24706,2.182767 6.83917,3.004957 3.3,0.38289 9.50362,1.84259 13.78581,3.24378 6.09582,1.99464 8.0892,3.13432 9.18353,5.25051 0.92148,1.78194 2.78128,3.11741 5.45836,3.91948 4.20779,1.26069 7.0723,4.93996 7.0723,9.08388 0,1.25465 1.64047,3.23109 4.25,5.12038 5.22549,3.78324 6.66883,6.25492 6.71456,11.49846 0.0278,3.18242 0.68558,4.68578 3.03544,6.93709 2.63975,2.52904 3,3.5522 3,8.52042 0,3.10544 0.28417,5.93041 0.63148,6.27773 1.07051,1.07051 3.87447,-0.99881 5.38039,-3.97072 z M 79.476697,129.14231 c 1.925,-1.18697 4.542525,-2.15982 5.816722,-2.16187 3.29666,-0.005 13.985779,-8.39731 14.147315,-11.107 0.01978,-0.3318 -3.226537,-0.88198 -7.214037,-1.22263 -10.224195,-0.87344 -17.230616,-3.21008 -21.680788,-7.23055 -2.096387,-1.89396 -4.657073,-3.44524 -5.690413,-3.4473 -3.278761,-0.007 -8.288171,-3.76796 -8.943232,-6.715246 -0.339959,-1.52956 -2.661685,-4.622193 -5.15939,-6.872517 -4.320156,-3.892273 -4.576761,-4.42789 -5.2699,-11 -0.41026,-3.889952 -1.663141,-8.639385 -2.867447,-10.869944 -1.176356,-2.178793 -2.13883,-5.441293 -2.13883,-7.25 0,-1.808707 -0.411674,-3.288558 -0.914831,-3.288558 -3.321658,0 -13.386002,19.781666 -14.556994,28.612057 -0.631047,4.758693 -0.49279,5.246906 2.000142,7.062881 l 2.67805,1.950823 -1.603184,4.722064 c -2.244299,6.61044 -2.091999,7.30032 2.24529,10.1706 2.11666,1.40074 4.41881,3.76963 5.11589,5.26419 0.697079,1.49456 1.590822,3.37497 1.986095,4.17868 0.395272,0.80371 2.25225,2.31803 4.126618,3.36516 1.874367,1.04713 4.683494,2.97718 6.242504,4.28901 4.027962,3.3893 8.980308,4.33605 20.68042,3.9535 5.627747,-0.184 8.373718,-0.78396 11,-2.40335 z m 19.435057,-27.06053 c 0.304201,-0.49221 -1.161831,-3.529712 -3.257847,-6.750006 -3.730897,-5.732103 -3.806092,-6.033607 -3.580156,-14.355079 0.354782,-13.06694 1.752766,-21.627774 4.039098,-24.734211 1.119588,-1.521184 2.326326,-4.906696 2.681639,-7.523359 0.804365,-5.923658 2.714302,-8.908725 7.258752,-11.344805 3.70857,-1.988006 9.42346,-11.400912 9.42346,-15.521241 0,-1.97106 -0.45199,-2.048354 -10.05857,-1.720091 -8.959905,0.306165 -10.243314,0.583806 -11.749999,2.541881 -0.930289,1.208996 -3.752477,3.072731 -6.27153,4.141634 -5.794969,2.458962 -13.345635,11.117292 -15.97976,18.323951 -1.075376,2.942103 -1.940144,7.857416 -1.940144,11.027715 0,4.418132 -0.556554,6.539835 -2.445745,9.323715 -2.576806,3.797135 -2.475338,5.340605 0.615962,9.36967 1.006381,1.311672 1.829783,3.112189 1.829783,4.001148 0,2.613622 9.083346,14.104242 12.427001,15.720412 1.69015,0.816941 5.772999,3.027048 9.072999,4.911348 6.535894,3.731998 7.111591,3.919718 7.935057,2.587318 z M 114.9767,88.916552 c 3.62372,-5.503478 17.3245,-16.939478 20.2991,-16.943595 1.4855,-0.0021 4.2759,-0.975876 6.2009,-2.164044 2.17611,-1.343162 6.3369,-2.490465 11,-3.03316 4.125,-0.480071 9.6409,-1.124912 12.25757,-1.432981 3.68597,-0.433962 5.67923,-0.07973 8.84949,1.572709 2.26323,1.179659 4.92644,1.867969 5.95924,1.54017 1.02702,-0.325964 4.596,-0.05583 7.93106,0.600307 3.33506,0.656133 6.2693,0.987413 6.52053,0.736178 0.25124,-0.251235 -0.42906,-2.977214 -1.51178,-6.057731 -2.38434,-6.783863 -9.97503,-15.177417 -14.63861,-16.186926 -1.72288,-0.372945 -4.34403,-2.037808 -5.82478,-3.699697 -2.37534,-2.665917 -3.13448,-2.946905 -6.44881,-2.386953 -2.4994,0.422272 -5.16485,0.07117 -7.96484,-1.049166 -3.94502,-1.578487 -4.56554,-1.578456 -9.91868,4.93e-4 -3.14072,0.926377 -8.63539,2.761233 -12.21039,4.077458 -3.575,1.316224 -7.54606,2.680248 -8.82457,3.031163 -1.50569,0.413269 -2.98177,2.171229 -4.1902,4.990368 -1.18439,2.763074 -2.98292,4.930116 -4.92543,5.934626 -1.68289,0.870256 -3.0598,2.375579 -3.0598,3.345162 0,0.969583 -0.93776,3.545527 -2.0839,5.72432 -2.36067,4.487577 -3.50525,14.04707 -2.49138,20.808039 0.77094,5.140932 1.98729,5.283113 5.07528,0.59326 z"
       id="path3351"
       inkscape:connector-curvature="0" />
    <path
       style="fill:#d0d0d0"
       d="m 109.9767,222.93729 c -10.743031,-2.37703 -19.535265,-6.21467 -26.35387,-11.50294 -3.887396,-3.01492 -7.330242,-4.73896 -11.052686,-5.53473 -2.973604,-0.63569 -6.94903,-1.80029 -8.83428,-2.58799 -2.198918,-0.91877 -4.921099,-1.20923 -7.593447,-0.81023 -4.876468,0.7281 -8.366024,-0.41472 -13.468557,-4.41091 -2.033439,-1.59254 -5.396095,-3.43331 -7.472567,-4.0906 -5.443612,-1.72312 -9.522882,-5.56036 -10.748077,-10.11039 -0.791478,-2.93933 -2.077182,-4.58253 -5.05773,-6.46407 -4.232992,-2.67217 -5.918789,-5.68087 -5.918789,-10.56349 0,-1.64151 -0.704012,-4.34597 -1.564471,-6.00991 -0.860459,-1.66395 -1.824193,-6.12332 -2.1416312,-9.90971 -0.4633886,-5.5273 -0.2367619,-7.40388 1.1496752,-9.51985 1.657861,-2.53021 1.644421,-2.7232 -0.336482,-4.83178 -1.6250255,-1.72976 -2.2086164,-4.09934 -2.7473392,-11.15514 -0.6058832,-7.93543 -1.0653279,-9.51429 -4.0218877,-13.82106 -3.89709935,-5.67684 -4.25572733,-9.73268 -1.412465,-15.974036 1.6116817,-3.537861 1.763144,-4.987279 0.929579,-8.895606 -0.8042459,-3.770859 -0.6788464,-5.337065 0.6518369,-8.141272 0.9062115,-1.909699 2.241077,-3.699897 2.9663677,-3.978217 0.7252908,-0.27832 2.0673583,-2.760004 2.9823723,-5.514853 0.915014,-2.754849 2.986838,-6.673818 4.604053,-8.708819 1.617216,-2.035 2.940392,-4.088124 2.940392,-4.562497 0,-0.474372 0.590809,-0.862495 1.312909,-0.862495 0.7221,0 2.595439,-1.338673 4.162976,-2.974829 2.122723,-2.215645 2.816247,-3.874462 2.717542,-6.5 -0.129729,-3.450804 1.816103,-4.936802 3.306573,-2.525171 0.786375,1.272381 7.587225,1.297535 10.89402,0.04029 1.388321,-0.527838 3.396226,-2.665338 4.462011,-4.75 1.065786,-2.084661 3.736317,-5.401897 5.934514,-7.371636 2.198197,-1.969738 4.90176,-5.344738 6.007918,-7.5 1.106157,-2.155261 3.431481,-4.747819 5.167386,-5.761239 1.735905,-1.01342 6.061886,-4.069675 9.613291,-6.791678 6.789385,-5.2037794 8.857609,-5.7677876 16.581534,-4.521814 4.318964,0.6967074 4.926849,0.518125 8.291109,-2.4357342 l 3.630435,-3.18756401 7.375215,1.73683511 c 4.05637,0.9552594 9.32537,1.5806182 11.70889,1.3896864 3.42266,-0.2741719 4.85922,0.1323855 6.83368,1.93398 4.99856,4.5609477 10.55178,8.9573947 12.81095,10.1423577 1.32549,0.695237 8.57481,1.456123 17,1.784316 l 14.68905,0.572194 4.70716,4.360002 c 4.09522,3.793197 5.28776,4.360004 9.17327,4.360004 5.37544,0 9.90269,3.297811 11.60397,8.452732 0.78017,2.36394 2.02012,3.701794 4.10424,4.428325 2.30457,0.803374 3.5638,2.362655 5.51573,6.829993 1.39116,3.183923 3.19318,7.01535 4.00447,8.514283 0.8113,1.498934 1.37229,4.467638 1.24664,6.597122 -0.12565,2.129483 0.51318,5.434664 1.41962,7.344847 1.35407,2.853485 1.44638,4.130246 0.51746,7.15695 -0.97049,3.162146 -0.82755,4.35605 1.00925,8.429819 1.17693,2.610261 2.43248,6.906074 2.79012,9.546251 0.4545,3.355239 1.65673,6.005003 3.99362,8.802073 3.72207,4.45503 4.10175,6.06765 4.8025,20.39761 0.47905,9.79622 0.42747,10.09607 -2.53073,14.7141 -1.66085,2.59275 -2.73636,5.1726 -2.39002,5.73299 1.25333,2.02792 -0.78066,8.24329 -4.04243,12.35268 -1.83364,2.31013 -6.39185,7.68487 -10.12938,11.94387 -5.49864,6.26586 -7.34228,7.74486 -9.66066,7.75 -1.96222,0.004 -3.69554,0.9803 -5.5,3.09679 -5.25681,6.16579 -14.80204,14.35178 -17.87036,15.32563 -0.99735,0.31655 -2.54142,2.68546 -3.48852,5.35206 -2.25203,6.34074 -6.28043,10.0184 -12.88121,11.75965 -2.96091,0.78107 -5.98508,2.21935 -6.72038,3.19618 -0.7353,0.97683 -1.96496,2.64887 -2.73259,3.71565 -1.11536,1.55004 -3.05729,2.05805 -9.66872,2.52932 -4.55018,0.32434 -9.17305,1.07979 -10.27305,1.67877 -3.67546,2.0014 -8.93159,2.09814 -17,0.3129 z m 11,-20.49706 c 2.75,-0.35596 7.25,-1.69509 10,-2.97585 2.75,-1.28076 6.25047,-2.8107 7.77883,-3.39986 1.52835,-0.58917 3.72172,-2.6693 4.87415,-4.62253 1.15243,-1.95323 3.77504,-4.40825 5.82803,-5.4556 3.3061,-1.68665 3.80665,-2.44387 4.37983,-6.62565 0.36149,-2.63736 1.9963,-6.82386 3.70369,-9.48461 2.88411,-4.49448 2.98775,-4.99291 1.83688,-8.83414 -0.97541,-3.25564 -0.9585,-4.86228 0.0844,-8.02238 1.1214,-3.3979 1.08507,-4.28574 -0.25935,-6.33759 -0.8599,-1.31237 -2.08915,-4.37044 -2.73167,-6.79572 -0.64252,-2.42528 -2.20283,-5.5346 -3.46735,-6.9096 -1.26453,-1.375 -3.00823,-3.90672 -3.87489,-5.62605 -1.684,-3.34082 -8.37053,-6.80315 -11.10897,-5.75231 -1.00111,0.38416 -1.83915,-0.26876 -2.46803,-1.92285 -1.20044,-3.1574 -2.60807,-4.0232 -6.76528,-4.16114 -4.11997,-0.1367 -4.32281,1.70073 -0.9179,8.31497 2.3693,4.60252 5.63219,16.67273 5.616,20.77494 -0.005,1.17015 -0.62077,2.63577 -1.36921,3.25692 -0.74845,0.62116 -1.61785,3.61979 -1.932,6.66363 -0.31415,3.04383 -1.50005,6.97821 -2.63532,8.74307 -1.13527,1.76485 -3.16294,5.52097 -4.50591,8.34694 -1.46564,3.08407 -4.40586,6.79425 -7.35483,9.28086 -3.23591,2.72856 -5.29633,5.42202 -6.03583,7.89027 -0.61753,2.06114 -2.5971,5.17089 -4.39904,6.91056 -2.63104,2.54011 -4.26095,3.2253 -8.276263,3.47923 l -5,0.3162 6.5,2.23928 c 6.564043,2.26134 9.735233,2.36127 22.500003,0.70901 z M 62.976697,176.9767 c 0.771187,-3.51119 3.217498,-4.0097 3.680449,-0.75 0.284658,2.00431 0.970162,2.28343 6.277883,2.55612 7.321077,0.37613 9.166349,-0.0622 13.961966,-3.31659 2.075749,-1.40865 5.417853,-2.89547 7.426896,-3.30405 2.82287,-0.5741 4.04361,-1.53158 5.372857,-4.21418 0.946032,-1.90922 3.039102,-4.5963 4.651272,-5.9713 4.15855,-3.54678 8.23497,-11.64281 8.81139,-17.5 0.71807,-7.29649 0.6166,-19.53402 -0.16848,-20.3191 -0.37248,-0.37248 -1.57809,0.55944 -2.67914,2.07093 -1.10105,1.51149 -2.60905,2.74817 -3.35111,2.74817 -0.74206,0 -1.66987,1.0125 -2.06179,2.25 -0.39192,1.2375 -3.5247,5.04958 -6.961744,8.47129 -4.967656,4.9455 -7.085592,6.35504 -10.327937,6.87351 -2.243326,0.35872 -5.528291,1.72164 -7.299923,3.02871 -2.471976,1.82377 -4.513293,2.37987 -8.776869,2.39104 -3.055646,0.008 -7.388975,0.65349 -9.629619,1.43441 -4.825549,1.68182 -10.493398,0.75206 -13.772756,-2.25931 -1.799377,-1.65233 -3.509483,-1.96466 -10.403345,-1.90003 l -8.25,0.0773 0,4.22485 c 0,3.51732 0.747826,5.14289 4.465439,9.70665 2.455992,3.01499 5.718492,5.9866 7.25,6.6036 1.531509,0.61699 4.584561,2.22583 6.784561,3.57521 5.542743,3.39965 11.772455,6.47454 13.170545,6.50077 0.643799,0.0121 1.467054,-1.328 1.829455,-2.978 z m 126.605973,-17.25 c 1.11898,-1.2375 4.31626,-5.74464 7.10507,-10.01586 4.99651,-7.65246 5.06155,-7.85207 4.45355,-13.66904 -0.36176,-3.46112 -0.15461,-7.22959 0.50074,-9.10953 0.90365,-2.5922 0.81496,-3.71892 -0.463,-5.88234 -0.86941,-1.4718 -1.88982,-5.00585 -2.26756,-7.85344 -0.63033,-4.75167 -1.03365,-5.38072 -4.90431,-7.64907 -2.31962,-1.35939 -5.40068,-4.02285 -6.84679,-5.918805 -3.61682,-4.741894 -10.48629,-7.967177 -15.11832,-7.098201 -3.15703,0.592262 -3.56535,0.431098 -3.56535,-1.407244 0,-3.015255 -2.95429,-4.146475 -10.82892,-4.146475 -12.87345,0 -34.32356,8.708203 -31.74141,12.886208 0.33102,0.535597 3.18226,1.264277 6.33609,1.619277 3.15383,0.35501 9.047,1.624 13.09593,2.81999 5.74625,1.69736 7.91043,2.88589 9.86236,5.41624 1.56126,2.0239 3.97605,3.63899 6.42797,4.29922 4.03741,1.08717 5.94394,3.74819 7.30138,10.19088 0.33785,1.60351 1.70638,3.31657 3.31345,4.14762 4.44705,2.29966 6.4367,5.23822 6.99425,10.32999 0.36454,3.32913 1.3962,5.79267 3.38173,8.07538 2.45647,2.82412 2.85717,4.12137 2.85717,9.25 0,6.47132 0.88761,7.27446 4.10597,3.7152 z M 79.961888,129.11406 c 2.191855,-1.17555 4.949255,-2.13736 6.127555,-2.13736 1.178301,0 2.702565,-0.675 3.387254,-1.5 0.684689,-0.825 1.832028,-1.5 2.549641,-1.5 1.226076,0 7.450359,-6.7399 7.450359,-8.06754 0,-0.33652 -4.290947,-1.13918 -9.535437,-1.78369 -10.172379,-1.25011 -16.78519,-3.73226 -20.511989,-7.69925 -1.265661,-1.34724 -3.145108,-2.44952 -4.176548,-2.44952 -3.865482,0 -7.578838,-2.91681 -9.235328,-7.254268 -0.959942,-2.51357 -2.894648,-5.116287 -4.661713,-6.271295 -4.008811,-2.620282 -5.878985,-6.396863 -5.878985,-11.871867 0,-2.876034 -0.901047,-6.191382 -2.5,-9.1986 -1.375,-2.586019 -2.5,-6.209831 -2.5,-8.052914 0,-4.32837 -1.136561,-4.22905 -4.819599,0.421165 -4.779105,6.034111 -10.13208,18.472083 -10.832038,25.168914 -0.601067,5.750704 -0.525198,6.021166 2.013517,7.177882 2.734804,1.24606 3.324757,2.793483 1.689306,4.430978 -0.521848,0.5225 -1.23714,2.754815 -1.589539,4.960685 -0.60826,3.80746 -0.428115,4.18154 3.555277,7.38268 2.307802,1.8546 4.842542,4.91938 5.632756,6.81063 0.790214,1.89125 2.819368,4.19405 4.50923,5.11732 1.689862,0.92328 4.86299,3.14119 7.051397,4.92869 2.981327,2.43516 5.020757,3.27499 8.134307,3.34968 2.285462,0.0548 5.270092,0.41018 6.63251,0.78968 3.839089,1.06939 13.095916,-0.38565 17.508067,-2.752 z m 19.514809,-27.3787 c 0,-0.68274 -1.540897,-3.495243 -3.424216,-6.250006 -3.234048,-4.730497 -3.43191,-5.508484 -3.562772,-14.008659 -0.200224,-13.005548 1.06256,-21.396985 3.797614,-25.235861 1.267985,-1.779724 2.659262,-5.474207 3.091727,-8.209962 0.89347,-5.652034 2.06309,-7.375999 7.20753,-10.623539 2.62116,-1.654665 4.51233,-4.163109 6.76021,-8.966717 1.71653,-3.668152 2.87142,-7.073142 2.56642,-7.566644 -0.305,-0.493502 -4.82447,-0.897277 -10.04328,-0.897277 -8.694656,0 -9.673029,0.198233 -11.690982,2.368764 -1.211238,1.30282 -4.453612,3.335424 -7.205276,4.516898 -3.603683,1.547303 -6.361194,3.825988 -9.858847,8.146914 -5.418002,6.693284 -6.708061,10.27084 -7.367202,20.430518 -0.355558,5.480406 -0.964838,7.572861 -2.861339,9.826725 -1.325273,1.574997 -2.409587,3.171571 -2.409587,3.547942 0,1.448267 7.659954,15.861252 10.507503,19.770939 2.974725,4.084299 5.970922,6.174437 16.492497,11.505115 6.116796,3.09904 8,3.48623 8,1.64485 z M 115.89869,87.952388 c 1.98529,-2.763369 4.88723,-5.801275 6.44877,-6.750902 1.56153,-0.949627 4.05655,-3.173387 5.54448,-4.941689 1.76283,-2.095 3.99077,-3.448236 6.39504,-3.884301 2.02935,-0.368064 5.48972,-1.577264 7.68972,-2.687112 2.2,-1.109848 7.375,-2.433865 11.5,-2.942259 4.125,-0.508395 9.35117,-1.15493 11.61371,-1.436746 2.97636,-0.370727 5.24748,0.06601 8.21446,1.579656 2.25542,1.150627 5.57925,2.017976 7.38629,1.927443 1.80705,-0.09053 5.72221,0.201292 8.70036,0.6485 4.67893,0.702603 5.33415,0.602918 4.82132,-0.733502 -0.32642,-0.850633 -1.17919,-3.505946 -1.89506,-5.900694 -1.64683,-5.509075 -10.02708,-14.296755 -14.58952,-15.298835 -1.8775,-0.412369 -4.08926,-1.922954 -5.29516,-3.616487 -1.89984,-2.668068 -2.54118,-2.895985 -7.76366,-2.758996 -3.65958,0.09599 -6.8567,-0.456008 -8.95177,-1.545573 -2.62578,-1.365566 -3.68551,-1.466655 -5.45387,-0.520253 -1.20717,0.646053 -4.2406,1.768588 -6.74097,2.494521 -8.14576,2.364962 -17.94597,6.063525 -19.51321,7.364211 -0.8431,0.699718 -1.53292,2.032262 -1.53292,2.961208 0,2.086276 -3.25775,5.695762 -5.89667,6.533322 -1.14468,0.363307 -2.2474,1.912256 -2.64272,3.712129 -0.37311,1.698771 -1.5195,4.940873 -2.54754,7.20467 -2.64403,5.822336 -2.56133,23.615996 0.10976,23.615996 0.43426,0 2.41388,-2.260938 4.39916,-5.024307 z"
       id="path3349"
       inkscape:connector-curvature="0" />
    <path
       style="fill:#afafaf"
       d="m 108.4767,222.5398 c -3.575,-0.66696 -8.29334,-2.1915 -10.485194,-3.38787 -2.191855,-1.19638 -4.666855,-2.18417 -5.5,-2.19509 -0.833145,-0.0109 -4.320377,-2.21438 -7.749405,-4.89657 -4.345341,-3.39892 -7.830158,-5.23128 -11.5,-6.04683 -2.895972,-0.64358 -6.93747,-1.87651 -8.981106,-2.73985 -2.239663,-0.94615 -5.076207,-1.34893 -7.140565,-1.01393 -5.111087,0.82942 -9.687235,-0.56606 -14.897022,-4.54278 -2.568227,-1.96037 -6.024698,-3.86196 -7.681047,-4.22576 -4.100607,-0.90064 -8.941496,-5.64358 -9.716821,-9.52021 -0.436717,-2.18358 -1.934613,-4.13028 -4.743554,-6.16481 -4.898143,-3.54776 -5.470492,-4.46562 -6.613365,-10.60573 -0.483576,-2.59802 -1.579585,-7.18424 -2.435576,-10.1916 -1.9888696,-6.98751 -2.0129377,-13.40824 -0.05635,-15.03207 1.997172,-1.65751 1.890912,-2.95499 -0.445699,-5.4422 C 9.0297828,134.93653 8.4250746,132.34094 7.8839281,125.17249 7.2708797,117.05157 6.8265102,115.43356 4.3551751,112.32378 0.34711427,107.2803 -0.24361293,102.87276 2.2485634,96.605909 3.8176851,92.660185 4.16961,90.071199 3.7737965,85.385314 c -0.4804389,-5.687735 -0.3162208,-6.317255 2.4781965,-9.5 1.6460021,-1.874741 3.4594758,-5.099104 4.029941,-7.165252 1.156217,-4.187655 5.498009,-10.101386 12.041508,-16.401116 3.841259,-3.698158 4.268109,-4.542839 3.670545,-7.263532 -0.523803,-2.384859 -0.333535,-3.078719 0.844238,-3.078719 0.836241,0 1.798553,0.45 2.138472,1 0.777402,1.257864 8.565066,1.30596 11.808189,0.07293 1.432839,-0.544764 2.724782,-2.068157 3.132874,-3.694124 0.381967,-1.521878 3.026487,-5.059785 5.876711,-7.862015 2.850224,-2.802231 5.938486,-6.521909 6.862803,-8.265953 0.924318,-1.744044 3.546202,-4.426454 5.82641,-5.960911 2.280207,-1.534458 6.655445,-4.7638 9.722749,-7.176316 l 5.576918,-4.3863937 7.728276,0.5959617 c 6.951398,0.5360532 7.91497,0.3896669 9.585484,-1.4562306 3.329821,-3.6794102 4.993399,-4.03508105 10.875389,-2.3251416 3.03234,0.8815263 7.91186,1.4916712 10.84337,1.3558775 5.67043,-0.2626658 7.1243,0.5114309 16.75454,8.9207777 4.48126,3.913137 10.6969,5.129805 26.36844,5.161435 l 9.96215,0.0201 4.23957,4.160826 c 3.62026,3.553016 5.08658,4.274497 10.03785,4.93897 4.83875,0.649372 6.25336,1.319819 8.54828,4.051399 1.5125,1.800291 2.75,4.085035 2.75,5.077209 0,1.077141 1.41039,2.47652 3.50059,3.473268 2.47876,1.182038 4.09804,3.001705 5.54732,6.233821 1.12571,2.510479 2.96652,6.300025 4.09069,8.421214 1.46197,2.758585 1.86418,4.81495 1.41259,7.222141 -0.41938,2.235448 -0.0814,4.428901 1.00652,6.532755 1.23759,2.393231 1.47251,4.490917 0.96124,8.583044 -0.53976,4.320058 -0.31633,5.960917 1.10436,8.110538 0.97955,1.482148 2.09591,5.324138 2.4808,8.537755 0.51193,4.274349 1.38302,6.556251 3.24479,8.500008 4.26228,4.44995 5.46971,8.84343 5.82293,21.18785 0.32064,11.2062 0.26511,11.55163 -2.42183,15.0636 -2.03057,2.65405 -2.75386,4.74695 -2.76474,8 -0.0199,5.95992 -3.21304,11.0076 -14.89856,23.55178 -4.73687,5.08495 -6.51957,6.35383 -8.92674,6.35383 -2.18624,0 -3.64321,0.83911 -5.3339,3.07195 -4.33786,5.72888 -13.07247,13.31084 -17.0973,14.84108 -1.87339,0.71226 -2.98277,2.20273 -3.88773,5.22324 -1.8688,6.23749 -7.29783,11.45621 -12.84103,12.34361 -3.57051,0.5716 -5.25046,1.57757 -8.13322,4.87026 -3.58582,4.09572 -3.7228,4.15056 -10.5,4.20383 -4.44076,0.0349 -7.99745,0.65318 -10.06712,1.75 -3.67487,1.94751 -9.80825,2.02986 -19.29966,0.25913 z m 13.39334,-19.98531 c 2.14133,-0.16666 6.19133,-1.47296 9,-2.90289 2.80866,-1.42994 6.26077,-2.82941 7.67135,-3.10994 1.52746,-0.30377 3.54959,-2.02476 5,-4.25538 1.33942,-2.05993 4.00677,-4.80087 5.92743,-6.09097 2.84287,-1.90953 3.72081,-3.35254 4.72212,-7.76143 0.6765,-2.97869 2.41073,-7.2 3.85384,-9.3807 2.38203,-3.59948 2.51492,-4.29494 1.44197,-7.54603 -0.91443,-2.77075 -0.90703,-4.65354 0.0327,-8.32009 1.10229,-4.30089 1.01814,-5.06117 -0.91034,-8.22466 -1.1687,-1.91713 -2.12659,-4.43632 -2.12864,-5.5982 -0.002,-1.16187 -1.39757,-3.86187 -3.10113,-6 -1.70357,-2.13812 -3.73932,-5.12346 -4.52391,-6.63407 -1.5194,-2.92541 -7.64868,-6.09443 -10.28976,-5.32012 -1.00224,0.29383 -2.33974,-0.71558 -3.62229,-2.73373 -1.53863,-2.42112 -2.75514,-3.20051 -5,-3.20341 -1.63166,-0.002 -3.54719,-0.37731 -4.25673,-0.83379 -1.74196,-1.12066 -0.69166,3.46283 2.02512,8.83762 1.11202,2.2 2.65598,6.925 3.43102,10.5 0.77503,3.575 1.65175,7.62884 1.94826,9.00854 0.36342,1.69108 -0.14214,3.29402 -1.55139,4.9189 -1.22141,1.4083 -1.85537,3.15116 -1.52493,4.19229 0.81839,2.57851 -1.35688,9.89428 -3.97847,13.38027 -1.24086,1.65 -2.81049,4.69116 -3.48806,6.75813 -0.78338,2.38977 -3.04586,5.28765 -6.21376,7.95886 -3.15083,2.65682 -5.74298,5.97011 -7.05283,9.01495 -1.13907,2.64782 -3.45671,5.9802 -5.15032,7.40528 -2.69963,2.27158 -3.691,2.51861 -8.040359,2.00349 -3.911058,-0.4632 -4.702323,-0.32862 -3.738594,0.63587 2.549692,2.5517 12.405143,4.68224 19.124393,4.13429 3.575,-0.29154 8.252,-0.66642 10.39334,-0.83308 z M 63.126697,176.9767 c 0.730806,-3.65403 2.074585,-3.8546 3.35,-0.5 0.895033,2.35411 1.37501,2.49851 8.225249,2.4744 6.568476,-0.0231 7.804224,-0.36291 12.728413,-3.5 2.999515,-1.91092 6.507944,-3.4744 7.796511,-3.4744 1.627112,0 2.86326,-0.99287 4.046337,-3.25 0.936923,-1.7875 3.332853,-4.825 5.324293,-6.75 4.70648,-4.54945 9.23226,-13.45717 8.44034,-16.61242 -0.32726,-1.3039 0.0767,-3.97833 0.89764,-5.94317 1.19074,-2.84983 1.28192,-4.62139 0.45082,-8.75842 -1.65868,-8.25649 -1.78742,-8.41603 -3.93791,-4.87984 -1.06826,1.75662 -2.63505,3.19385 -3.48174,3.19385 -0.8467,0 -2.00753,1.23114 -2.57963,2.73588 -0.5721,1.50473 -3.51639,5.15348 -6.542865,8.10834 -4.132804,4.03501 -6.755621,5.703 -10.535626,6.70014 -2.768118,0.73022 -5.934857,2.14396 -7.037197,3.14165 -1.500087,1.35768 -3.752892,1.84073 -8.955751,1.9203 -3.823323,0.0585 -7.466158,0.62096 -8.09519,1.25 -2.104197,2.10419 -10.147725,1.35873 -14.0717,-1.30415 -3.109416,-2.11011 -4.715364,-2.44058 -11.639547,-2.39517 l -8.032447,0.0527 0,4.3577 c 0,6.11328 6.218813,13.69049 14.834319,18.07465 3.432972,1.74693 6.965163,3.77963 7.849313,4.51711 2.15727,1.7994 6.408485,3.65977 8.591368,3.75965 1.200939,0.0549 1.969049,-0.88902 2.375,-2.91878 z M 188.53918,160.94326 c 1.06204,-0.56839 2.85657,-2.70589 3.98784,-4.75 1.13126,-2.04411 3.63609,-5.96656 5.56628,-8.71656 3.2491,-4.62909 3.47948,-5.44509 3.1056,-11 -0.2221,-3.3 0.0199,-7.55003 0.5377,-9.44451 0.71739,-2.62454 0.57494,-4.06507 -0.5984,-6.05138 -0.84696,-1.43378 -1.85242,-4.96261 -2.23436,-7.84184 -0.51562,-3.88693 -1.23941,-5.51759 -2.81079,-6.33254 -1.16399,-0.60367 -4.88357,-3.73124 -8.26573,-6.950159 -7.0581,-6.717422 -10.32863,-8.278681 -15.60062,-7.447304 -3.47188,0.547505 -3.75,0.410072 -3.75,-1.853067 0,-2.959902 -2.08267,-3.770667 -9.87453,-3.844062 -7.1586,-0.06743 -14.88117,1.74886 -23.07981,5.428192 -11.71126,5.255708 -13.15431,8.37397 -4.29566,9.28241 3.1625,0.32431 9.44581,1.75483 13.9629,3.17893 6.60894,2.08359 8.71834,3.25193 10.80089,5.9823 1.60521,2.10454 3.45184,3.39303 4.86279,3.39303 3.12552,0 6.58192,3.96944 7.29783,8.38105 0.46438,2.86166 1.49625,4.27298 4.69466,6.42106 4.8873,3.28234 6.59632,6.30485 6.61619,11.70114 0.0117,3.17432 0.65974,4.61202 3.12971,6.94327 2.91813,2.75426 3.07672,3.26544 2.50971,8.0898 -0.75187,6.39725 -0.14885,7.34976 3.4378,5.43024 z M 78.353815,129.85986 c 2.407415,-1.03574 5.112562,-1.88316 6.011437,-1.88316 3.841387,0 16.683238,-10.76154 14.931828,-12.51295 -0.300124,-0.30012 -4.511276,-0.99628 -9.358115,-1.54702 -9.412409,-1.06951 -16.414133,-3.5976 -20.462268,-7.38824 -1.375,-1.28754 -3.905988,-2.63675 -5.624418,-2.99826 -3.543107,-0.74535 -6.796477,-3.864054 -7.87972,-7.553535 -0.403704,-1.375 -2.782937,-4.325767 -5.287183,-6.55726 -4.350707,-3.876843 -4.573819,-4.342645 -5.017399,-10.47508 -0.280133,-3.872797 -1.167669,-7.419092 -2.238112,-8.94274 -0.975639,-1.388706 -2.0668,-4.66242 -2.424802,-7.27492 -0.358001,-2.6125 -1.043212,-4.75 -1.522689,-4.75 -1.672204,0 -7.714395,8.551981 -10.951143,15.5 -2.098539,4.504734 -3.448232,9.190848 -3.786312,13.146011 -0.488564,5.715675 -0.358804,6.232796 1.853215,7.385455 1.30821,0.681694 2.49697,1.334396 2.64169,1.450449 0.144719,0.116052 -0.417781,1.840644 -1.25,3.832426 -2.463474,5.895924 -1.973348,8.153104 2.547946,11.734034 2.23359,1.76904 4.75066,4.93988 5.593489,7.04631 0.842829,2.10644 2.381989,4.09953 3.420357,4.4291 1.038367,0.32956 4.246687,2.37154 7.129599,4.53771 3.641219,2.73596 6.318533,3.96895 8.76857,4.03819 1.939802,0.0548 4.651912,0.45986 6.026912,0.90008 3.528568,1.1297 11.719133,0.1025 16.877118,-2.1166 z m 21.122882,-28.1245 c 0,-0.68274 -1.54224,-3.495243 -3.427199,-6.250006 -3.195855,-4.670561 -3.436949,-5.582431 -3.571632,-13.508659 -0.212384,-12.49901 1.146793,-20.764249 4.290017,-26.087858 1.588354,-2.690159 2.708814,-6.070911 2.708814,-8.173274 0,-4.136529 3.420913,-8.840748 7.729753,-10.62945 2.0053,-0.832449 3.68327,-3.078423 6.07675,-8.133773 1.81858,-3.841077 3.02952,-7.431947 2.69099,-7.979711 -0.33854,-0.547763 -4.84831,-0.995934 -10.02171,-0.995934 -8.913481,0 -9.578253,0.149651 -12.690987,2.856941 -1.806638,1.571317 -4.940511,3.395726 -6.964163,4.054241 -4.985966,1.62248 -13.302349,11.794162 -15.321397,18.739441 -0.82458,2.836456 -1.499236,7.722973 -1.499236,10.858928 0,4.622898 -0.473031,6.263903 -2.5,8.672818 -3.066954,3.644868 -3.065123,4.298756 0.02609,9.317631 1.355017,2.2 2.475979,4.675 2.491026,5.5 0.01505,0.825 0.939803,2.625 2.055012,4 1.115209,1.375 3.135848,4.1875 4.490309,6.25 1.354461,2.0625 3.04336,3.75 3.753109,3.75 0.709749,0 3.081043,1.316815 5.269542,2.926255 2.188499,1.609441 5.206402,3.23429 6.706451,3.61078 1.500049,0.37649 2.974668,1.08468 3.27693,1.57375 0.833672,1.34892 4.431531,1.06304 4.431531,-0.35212 z M 116.36634,87.506642 c 2.27146,-3.008529 5.13803,-5.994348 6.37014,-6.635154 1.23212,-0.640806 3.61761,-2.642924 5.30108,-4.449152 2.00267,-2.148689 4.42271,-3.526912 7,-3.986531 2.16653,-0.386363 5.38966,-1.577019 7.16252,-2.6459 1.8781,-1.132335 6.67762,-2.36429 11.5,-2.951853 4.55214,-0.554638 9.90117,-1.241603 11.88672,-1.526589 2.50424,-0.359433 4.86605,0.12258 7.71016,1.573538 2.47305,1.261655 6.00342,2.091694 8.8965,2.091694 2.63805,0 6.33867,0.442304 8.22361,0.982898 1.88494,0.540595 3.62417,0.785899 3.86494,0.545121 1.12304,-1.123031 -3.42846,-12.890216 -5.51458,-14.257092 -1.24053,-0.812828 -3.16472,-2.948998 -4.27597,-4.747045 -1.54822,-2.505067 -2.93898,-3.416055 -5.95026,-3.897578 -2.80821,-0.449051 -4.53927,-1.484321 -6.06525,-3.627352 -1.98002,-2.780686 -2.58736,-2.998952 -8.34484,-2.998952 -3.97797,0 -7.00107,-0.55451 -8.41239,-1.543036 -2.0404,-1.42915 -2.96095,-1.275489 -12.47251,2.081961 -5.64823,1.993748 -12.34489,4.278755 -14.88147,5.077792 -3.92612,1.236749 -4.84362,2.042537 -6.16973,5.41848 -0.95409,2.428885 -2.76228,4.64368 -4.66598,5.715243 -1.74631,0.982966 -3.34503,2.844971 -3.64867,4.24956 -0.29724,1.375 -1.40966,4.349289 -2.47205,6.609531 -2.76908,5.891253 -2.72718,24.390469 0.0552,24.390469 0.42508,0 2.63134,-2.461524 4.9028,-5.470053 z"
       id="path3347"
       inkscape:connector-curvature="0" />
    <path
       style="fill:#8f8f8f"
       d="m 108.09864,222.37615 c -3.78293,-0.75192 -7.3884,-1.79066 -8.01215,-2.30833 -0.623744,-0.51766 -3.654907,-1.88437 -6.735915,-3.03712 -3.081009,-1.15275 -6.449996,-3.03312 -7.486639,-4.1786 -3.060864,-3.38222 -9.483719,-6.61056 -15.619802,-7.85105 -3.15291,-0.6374 -5.990808,-1.57676 -6.306441,-2.08746 -0.315633,-0.5107 -3.62732,-0.88208 -7.359303,-0.82527 -6.597152,0.10042 -12.025804,-1.56178 -13.642158,-4.17709 -0.367009,-0.59384 -3.963105,-2.58165 -7.991323,-4.41737 -7.443483,-3.3921 -9.328014,-5.42866 -10.831357,-11.70513 -0.416551,-1.73911 -2.056216,-3.48179 -4.644885,-4.9367 -3.865577,-2.17258 -5.969388,-6.03945 -5.986393,-11.00321 -0.0031,-0.89533 -0.674809,-3.22957 -1.492759,-5.1872 -0.81795,-1.95763 -1.773188,-6.63664 -2.1227511,-10.3978 -0.5222826,-5.61956 -0.3463226,-7.07854 0.9871821,-8.18525 2.128504,-1.7665 2.050383,-3.40489 -0.26214,-5.4977 C 9.11233,135.24196 8.5505868,132.78994 7.9800972,125.18067 7.334607,116.57104 6.9449975,115.13516 4.4982175,112.34843 0.7734612,108.10617 -0.01593106,103.28442 2.1198783,97.821099 3.2647369,94.892598 3.7456191,91.144503 3.5953653,86.320848 3.3855936,79.586466 3.5563554,78.955561 6.4946444,75.609035 8.2118429,73.653254 10.06675,70.423571 10.61666,68.431962 11.715823,64.45112 17.667732,56.05358 20.507708,54.476695 c 3.636012,-2.01888 6.231124,-6.439323 5.608363,-9.553132 -0.43051,-2.152546 -0.207699,-2.946868 0.826609,-2.946868 0.778791,0 1.694098,0.45 2.034017,1 0.777853,1.258593 8.565818,1.305674 11.812182,0.07141 1.344305,-0.511103 2.906013,-2.258566 3.473608,-3.886769 0.567174,-1.626997 3.547397,-5.474348 6.622718,-8.549669 3.075321,-3.075322 5.591492,-6.231955 5.591492,-7.014741 0,-1.550949 2.572157,-3.799357 14,-12.237864 l 7.5,-5.5381228 7.317417,0.5708232 c 7.055706,0.5504073 7.453889,0.4611518 11.133132,-2.4955685 l 3.815714,-3.06639172 5.29837,1.57344672 c 2.91411,0.8653956 7.94754,1.5734466 11.1854,1.5734466 5.74944,0 6.07606,0.1519198 13.97439,6.4999995 5.0059,4.023363 9.07577,6.534941 10.68147,6.591705 1.42676,0.05044 8.50365,0.394304 15.72641,0.764148 l 13.1323,0.672444 4.59536,4.235851 c 3.61578,3.332909 5.35679,4.235852 8.16736,4.235852 5.51054,0 9.37988,2.535969 11.62973,7.622142 1.15671,2.614916 2.93904,4.844093 4.28104,5.354321 2.39937,0.912238 6.56191,5.550537 6.56191,7.311904 0,0.560258 1.12101,3.388271 2.49113,6.284474 1.71128,3.617345 2.30693,6.186877 1.9027,8.207993 -0.36619,1.830969 0.0386,4.15474 1.07182,6.152742 1.24628,2.410037 1.49649,4.521252 1.00349,8.467097 -0.53371,4.271659 -0.26446,5.988466 1.43705,9.163117 1.17939,2.200487 2.09381,5.753942 2.09381,8.136605 0,3.275089 0.67799,5.002205 3.0033,7.65059 4.74391,5.40301 5.83433,9.19851 6.13457,21.35299 0.26296,10.64558 0.16463,11.25201 -2.43191,14.99883 -1.97234,2.84608 -2.70596,5.13783 -2.70596,8.45307 0,3.26509 -0.70081,5.50704 -2.48391,7.94625 -1.36615,1.86883 -3.30883,4.61908 -4.31708,6.11166 -1.00824,1.49258 -4.61503,5.65508 -8.01508,9.25 -4.87472,5.15411 -6.80137,6.53622 -9.11149,6.53622 -3.2568,0 -4.84293,1.27454 -8.05605,6.47348 -1.19873,1.93958 -2.65498,3.52652 -3.23612,3.52652 -0.58113,0 -3.00938,1.8 -5.3961,4 -2.38671,2.2 -5.02006,4 -5.85187,4 -0.89168,0 -2.71597,2.65444 -4.44495,6.46763 -3.18035,7.0141 -6.54149,9.86577 -12.9553,10.99157 -2.56715,0.4506 -4.70674,1.86833 -7.2975,4.83544 -3.6588,4.19031 -3.67875,4.1981 -11,4.2967 -4.7714,0.0643 -8.38294,0.67497 -10.33455,1.74756 -3.52769,1.93879 -9.33482,1.95742 -18.87806,0.0606 z m 14.90177,-19.6919 c 1.66304,-0.14559 4.58804,-1.22319 6.5,-2.39465 1.91196,-1.17147 5.38114,-2.63639 7.70928,-3.25538 2.60759,-0.69329 4.67043,-1.97638 5.37219,-3.34148 1.63893,-3.18816 6.05483,-7.71604 7.52521,-7.71604 1.92786,0 4.36961,-4.10764 4.36961,-7.35078 0,-1.59817 1.37236,-5.30441 3.0497,-8.23608 2.77827,-4.85592 2.95454,-5.68369 1.98052,-9.30091 -0.8179,-3.03745 -0.74876,-4.9006 0.2942,-7.92781 1.2673,-3.67838 1.19857,-4.22945 -0.9754,-7.82082 -1.28633,-2.12498 -2.34108,-4.84163 -2.3439,-6.037 -0.003,-1.19538 -1.58012,-4.23677 -3.50512,-6.75866 -1.925,-2.52188 -3.5,-4.99869 -3.5,-5.50401 0,-1.74821 -5.3159,-5.09081 -9.0443,-5.687 -2.54507,-0.40698 -4.43035,-1.52765 -5.88905,-3.50065 -1.56987,-2.12337 -2.88053,-2.84603 -4.88473,-2.69332 -1.50653,0.1148 -3.3369,-0.16071 -4.06747,-0.61223 -1.88938,-1.1677 -0.50788,4.92625 2.08441,9.19452 3.92761,6.46692 6.21094,23.47978 3.30114,24.59638 -1.07399,0.41213 -1.5,2.09094 -1.5,5.9112 0,4.16802 -0.63375,6.33493 -2.89609,9.90227 -1.59285,2.51166 -3.81204,6.63732 -4.93154,9.16813 -1.35076,3.05363 -3.54763,5.66736 -6.5309,7.77016 -2.60682,1.83746 -4.76893,4.26476 -5.14641,5.77765 -1.978,7.92757 -7.81251,12.56155 -14.474587,11.49624 -6.309628,-1.00895 -4.900888,1.25289 2.229524,3.57966 6.096333,1.98934 9.778123,2.09723 25.273713,0.74061 z M 63.313546,177.4767 c 0.609557,-3.4122 2.026821,-3.98877 3.068706,-1.24841 0.538932,1.4175 1.95432,2.88655 3.145306,3.26455 4.05306,1.28639 12.634975,-0.50522 17.145893,-3.57947 2.366785,-1.613 6.034382,-3.22311 8.150215,-3.57801 3.328203,-0.55827 4.087686,-1.20686 5.632034,-4.80967 0.98178,-2.29041 2.96129,-4.93507 4.39891,-5.87704 3.64124,-2.38583 8.62209,-12.61615 8.62209,-17.70917 0,-2.25185 0.42944,-4.89667 0.9543,-5.87739 0.61556,-1.15019 0.56309,-4.14402 -0.14783,-8.43426 -1.12304,-6.77732 -2.1671,-8.24097 -3.30995,-4.64016 -0.35104,1.10603 -1.95637,2.69259 -3.56739,3.52568 -1.61102,0.83309 -2.92913,2.22397 -2.92913,3.09084 0,2.33787 -13.045793,14.37251 -15.580093,14.37251 -1.176105,0 -4.657118,1.34408 -7.735584,2.98684 -4.65493,2.48401 -6.333742,2.88589 -9.972248,2.38717 -3.053724,-0.41856 -5.316969,-0.11257 -7.493897,1.01316 -4.763539,2.46333 -10.193853,2.04362 -15.296736,-1.18228 -4.001685,-2.52975 -5.109741,-2.75931 -11.671445,-2.41794 l -7.25,0.37717 0,4.49313 c 0,6.62694 5.893176,13.86497 14.550135,17.87056 3.532947,1.63471 6.429463,3.33169 6.436702,3.77108 0.02034,1.23431 8.266664,4.7273 10.502947,4.44886 1.094382,-0.13626 2.150561,-1.14775 2.347065,-2.24775 z M 189.91421,160.04575 c 0.96112,-1.06203 2.49337,-3.28082 3.40499,-4.93065 0.91163,-1.64983 3.17114,-5.0988 5.02113,-7.66438 3.25194,-4.50979 3.3692,-5.00191 3.53104,-14.81936 0.10442,-6.33424 -0.27876,-10.90711 -1.01847,-12.15466 -0.65223,-1.1 -1.49908,-4.38551 -1.8819,-7.30113 -0.61398,-4.67618 -1.12624,-5.57735 -4.34517,-7.64412 -2.00702,-1.28864 -5.44913,-4.22772 -7.64913,-6.53129 -5.55866,-5.820348 -8.87968,-7.380338 -14.16852,-6.655421 -4.09644,0.561479 -4.33148,0.460108 -4.33148,-1.868122 0,-1.833914 -0.70141,-2.656499 -2.75,-3.225103 -9.75151,-2.706611 -31.88025,2.794669 -39.08337,9.716264 -3.15014,3.027021 -1.93921,3.895782 6.9128,4.959442 9.67761,1.16287 20.26964,5.32543 21.73506,8.54167 0.7105,1.55939 2.46469,2.77517 4.98225,3.45308 4.82084,1.29812 6.83188,3.46549 7.73608,8.33749 0.5488,2.957 1.64131,4.42898 5.00479,6.74312 4.50895,3.10224 7.1361,8.27608 6.00769,11.8314 -0.40789,1.28513 0.55974,3.27614 3.02797,6.23042 3.34254,4.00075 3.57942,4.70362 3.01619,8.94947 -0.83043,6.2601 1.25898,7.99776 4.84805,4.03188 z M 78.757491,129.8929 c 2.079436,-1.05391 4.5149,-1.9162 5.412142,-1.9162 2.332609,0 10.237465,-4.81894 12.945302,-7.89169 3.998875,-4.53776 2.73501,-6.09506 -4.970025,-6.12393 -8.684479,-0.0326 -19.711163,-3.85632 -21.951322,-7.61216 -0.43071,-0.72213 -2.68071,-1.81653 -5,-2.43201 -4.914863,-1.30426 -8.716891,-4.461979 -8.716891,-7.239666 0,-1.072953 -2.25,-3.991933 -5,-6.486623 C 46.62706,85.791224 46.475758,85.486744 46.445487,80.065758 46.422301,75.913497 45.780934,73.4484 43.950611,70.476695 42.476834,68.083878 41.484885,64.957351 41.48182,62.69531 41.47512,57.732913 39.3149,56.916368 36.024371,60.632418 31.91919,65.268469 25.37876,79.466428 24.463941,85.727789 c -0.811366,5.553292 -0.743431,5.827468 1.996558,8.057778 2.663491,2.168041 2.750868,2.473019 1.432512,5 -0.772196,1.480123 -1.40369,4.266133 -1.40332,6.191133 5.58e-4,2.90723 0.619802,3.92175 3.656345,5.99025 2.14868,1.46369 4.448228,4.28196 5.57826,6.83658 1.333753,3.01517 2.891909,4.75155 5.087494,5.6694 1.740699,0.72769 4.914284,2.71372 7.052412,4.41342 2.646405,2.10374 5.040806,3.11279 7.5,3.16064 1.986872,0.0386 4.512495,0.47316 5.612495,0.96557 2.96223,1.32603 13.448754,0.0759 17.780794,-2.11966 z m 20.719206,-28.59124 c 0,-0.85636 -1.583072,-3.713586 -3.517937,-6.3494 l -3.517938,-4.79239 0.512963,-14.131627 c 0.518092,-14.272944 0.528415,-14.316985 5.25817,-22.432135 0.679392,-1.165677 1.241892,-3.706785 1.25,-5.646907 0.01845,-4.414362 1.975055,-7.2602 6.891365,-10.023318 2.96266,-1.665108 4.5984,-3.729801 7.1758,-9.057555 2.4869,-5.140658 3.04941,-7.189804 2.20538,-8.033831 -0.69242,-0.69242 -4.68017,-1.099554 -10.25468,-1.04696 -8.614257,0.08127 -9.308298,0.249921 -12.476627,3.03175 -1.845225,1.62013 -4.890662,3.452519 -6.767636,4.071977 -4.517435,1.490888 -12.447166,10.760907 -14.866069,17.378741 -1.080401,2.955851 -1.892791,7.783644 -1.892791,11.248293 0,4.904211 -0.48009,6.720563 -2.5,9.458397 -2.987332,4.0491 -3.083554,5.35264 -0.652952,8.84563 1.015876,1.459903 2.320292,4.053258 2.898701,5.763009 2.775211,8.20339 10.324363,15.242279 22.754251,21.216246 6.262322,3.00975 7.5,3.09228 7.5,0.50008 z M 116.56445,87.476695 c 2.2839,-3.025 4.58861,-5.5 5.12159,-5.5 0.53298,0 2.93713,-2.025 5.34255,-4.5 3.10326,-3.193018 5.18305,-4.504282 7.16081,-4.514742 1.53301,-0.0081 3.9123,-0.663785 5.2873,-1.457061 4.86726,-2.808057 7.42511,-3.62239 12.43392,-3.958537 2.78634,-0.186995 7.57755,-0.918615 10.64712,-1.625822 5.16298,-1.189509 5.91699,-1.123202 10.06573,0.885166 2.48917,1.204989 6.45776,2.181611 8.91895,2.194853 2.43886,0.01312 6.22165,0.438254 8.40621,0.944741 2.18455,0.506487 4.15236,0.740448 4.37289,0.519914 0.22053,-0.220533 -0.38337,-3.298544 -1.342,-6.840023 -1.28476,-4.746282 -2.37762,-6.778707 -4.15708,-7.731045 -1.32776,-0.710595 -3.30523,-2.733857 -4.39438,-4.496138 -1.40136,-2.267453 -3.01069,-3.397456 -5.50503,-3.865396 -2.04911,-0.384416 -4.62417,-1.895155 -6.15084,-3.60858 -2.29259,-2.573033 -3.30988,-2.94733 -8.01045,-2.94733 -2.9614,0 -6.71998,-0.690676 -8.3524,-1.534836 -3.21354,-1.661786 -6.36259,-1.020771 -18.43264,3.752122 -2.75,1.08744 -6.95963,2.508641 -9.35472,3.158225 -3.70691,1.005363 -4.67387,1.839581 -6.5,5.607718 -1.2146,2.506251 -3.43311,5.124677 -5.1138,6.035638 -2.13835,1.159015 -3.18754,2.66314 -3.7517,5.378435 -0.43074,2.0732 -1.45741,4.732062 -2.28148,5.908583 -1.53183,2.187 -2.19776,18.70778 -0.89131,22.112328 0.98359,2.563191 2.09423,1.891708 6.48076,-3.918213 z"
       id="path3345"
       inkscape:connector-curvature="0" />
    <path
       style="fill:#6e6e6e"
       d="m 108.71411,222.39253 c -3.99443,-0.72604 -8.26943,-2.02777 -9.500006,-2.89274 -1.230574,-0.86497 -3.836295,-2.005 -5.790492,-2.5334 -1.954197,-0.5284 -5.409697,-2.54992 -7.678889,-4.49226 -4.747748,-4.0639 -11.639126,-7.44081 -15.268026,-7.48163 -1.375,-0.0155 -3.788938,-0.70035 -5.364307,-1.52196 -1.698252,-0.8857 -5.565686,-1.49536 -9.5,-1.49758 -5.211365,-0.003 -7.356018,-0.48589 -9.99156,-2.25 -1.845727,-1.23544 -6.777932,-4.05794 -10.960455,-6.27221 -7.143626,-3.78191 -7.728217,-4.34731 -9.644133,-9.32751 -1.12175,-2.91585 -2.939545,-5.77813 -4.039545,-6.36061 -4.533216,-2.40049 -6.342896,-5.00878 -7.031741,-10.13487 -0.380711,-2.83308 -1.1006,-5.65776 -1.599755,-6.27705 -0.499154,-0.61929 -1.437357,-4.76097 -2.084896,-9.20372 -1.0532974,-7.22667 -0.9985607,-8.27529 0.519525,-9.95275 2.19001,-2.41994 2.138489,-3.5079 -0.269306,-5.68693 -1.0813955,-0.97865 -1.9100958,-2.51089 -1.8415565,-3.40498 0.068539,-0.8941 0.053317,-4.81428 -0.033827,-8.71152 -0.1428195,-6.38714 -0.4910289,-7.52117 -3.5311457,-11.5 C 0.53538376,106.91152 0.0576645,104.15749 2.3887793,97.237674 3.8382835,92.934887 4.1911866,89.919593 3.7782514,85.365671 3.2400709,79.43052 3.3252175,79.150126 6.850714,75.247823 c 1.9942906,-2.207441 3.628352,-4.858989 3.631248,-5.892329 0.0029,-1.033339 0.905281,-3.228799 2.005301,-4.878799 1.10002,-1.65 2.9421,-4.4625 4.093511,-6.25 1.151411,-1.7875 2.701125,-3.25 3.443808,-3.25 2.244948,0 6.452115,-6.419134 6.452115,-9.844391 0,-3.064423 1.436069,-4.347402 2.223151,-1.986155 0.394111,1.182332 8.54749,1.346812 12.043619,0.242958 0.971724,-0.306808 2.65902,-2.306787 3.749548,-4.444398 1.090528,-2.137612 3.829471,-5.592392 6.08654,-7.67729 2.257069,-2.084898 4.958177,-5.462071 6.002463,-7.504829 1.196419,-2.340349 4.209678,-5.268222 8.146691,-7.915838 3.436393,-2.310953 7.793372,-5.536131 9.682175,-7.1670612 3.336568,-2.8810378 3.647906,-2.9472625 10.952801,-2.3297727 7.261635,0.613833 7.643912,0.5348634 11.184549,-2.3104701 3.635636,-2.9216743 3.705656,-2.9340705 8.471776,-1.4996801 2.64322,0.7954901 7.76479,1.5137517 11.38127,1.5961368 3.71731,0.084682 7.22742,0.7106722 8.07542,1.4401664 0.825,0.7097065 3.525,3.0513047 6,5.2035519 2.475,2.152246 5.49829,4.43528 6.71842,5.073409 1.22014,0.638128 9.21499,1.551467 17.76634,2.029641 l 15.5479,0.869408 4.46133,4.112307 c 3.48922,3.216255 5.23965,4.112307 8.03333,4.112307 5.473,0 9.38149,2.539617 11.58907,7.530214 1.16989,2.644735 3.02229,4.901058 4.66236,5.679001 3.75026,1.77888 11.20054,16.954139 10.49945,21.385998 -0.28585,1.806965 0.18361,4.397142 1.12795,6.223301 1.19466,2.310212 1.45351,4.524225 0.99002,8.46782 -0.50643,4.308918 -0.21916,6.14032 1.48812,9.486861 1.16364,2.280921 2.11571,5.864666 2.11571,7.963879 0,2.898958 0.96186,5.09686 4,9.140251 2.2,2.92793 4.06523,6.06582 4.14496,6.97309 0.18659,2.12322 0.96872,18.93866 1.02084,21.94749 0.0219,1.26385 -1.13145,3.98804 -2.563,6.05375 -1.84676,2.66489 -2.60433,5.04736 -2.60806,8.2021 -0.003,2.54184 -0.75257,5.58156 -1.75,7.09687 -3.15811,4.79784 -7.56775,10.2922 -11.18463,13.93592 -1.95806,1.97259 -4.53856,4.78509 -5.73444,6.25 -1.62694,1.99293 -3.08491,2.66346 -5.79131,2.66346 -3.25927,0 -3.92435,0.49447 -6.72514,5 -1.70949,2.75 -3.54887,5 -4.08749,5 -0.53863,0 -2.64703,1.4625 -4.68533,3.25 -2.0383,1.7875 -5.13034,4.01657 -6.8712,4.95349 -1.74086,0.93692 -3.1652,2.47238 -3.1652,3.41214 0,2.8802 -4.92046,10.29415 -7.78889,11.73598 -1.49111,0.74952 -4.28611,1.65268 -6.21111,2.00705 -2.41562,0.44467 -4.63564,1.95943 -7.16546,4.88911 l -3.66546,4.24483 -6.70034,-0.18618 c -4.98908,-0.13862 -7.62473,0.30927 -10.31973,1.7537 -4.10267,2.1989 -8.33308,2.27847 -18.9116,0.35571 z m 12.46353,-19.41098 c 3.46189,-0.44595 7.44137,-1.68206 9.00917,-2.79843 1.54452,-1.0998 4.6578,-2.49767 6.9184,-3.10639 3.0658,-0.82553 4.77751,-2.11518 6.73656,-5.0755 1.44452,-2.18282 4.09082,-4.71354 5.88066,-5.62382 4.27705,-2.17523 3.93322,-1.64322 4.86289,-7.52432 0.44904,-2.84062 1.99964,-6.95269 3.44576,-9.13793 2.3591,-3.56484 2.52388,-4.38856 1.60339,-8.01503 -0.78906,-3.10864 -0.68338,-5.05083 0.45773,-8.41188 1.39358,-4.10471 1.36082,-4.5262 -0.53964,-6.94224 -1.11281,-1.41471 -2.31657,-4.21405 -2.67501,-6.22076 -0.65309,-3.65631 -4.59338,-9.95521 -9.54522,-15.25888 -1.70113,-1.822 -4.10883,-3.06643 -6.75,-3.48877 -2.2581,-0.36108 -4.10563,-0.96299 -4.10563,-1.33758 0,-2.20593 -3.21229,-4.41261 -7.3341,-5.03814 -5.74593,-0.87202 -5.94391,0.0792 -1.78679,8.58436 4.54077,9.29011 6.43569,22.05438 3.62089,24.39046 -0.98398,0.81663 -1.5,3.04684 -1.5,6.4829 0,3.98804 -0.61868,6.14968 -2.59259,9.0584 -1.42592,2.10122 -3.62659,6.15845 -4.89037,9.01608 -1.65473,3.74166 -3.57899,6.07718 -6.87598,8.34556 -3.4299,2.35984 -4.83929,4.11951 -5.61916,7.01572 -0.63579,2.36116 -2.54809,5.22744 -4.91311,7.36409 -3.53372,3.1925 -4.27579,3.45275 -8.49047,2.9777 -2.888559,-0.32559 -4.618323,-0.1274 -4.618323,0.52913 0,2.1256 18.221863,6.66785 22.000003,5.48405 0.825,-0.2585 4.29042,-0.82945 7.70094,-1.26878 z M 63.476697,177.53572 c 0,-3.40821 1.807923,-4.1725 2.581276,-1.09121 0.399514,1.59179 1.568948,2.78277 3.112915,3.17028 4.491336,1.12726 12.539004,-0.4841 17.347983,-3.47353 2.549434,-1.58481 6.30979,-3.19561 8.356347,-3.57954 3.157132,-0.59229 3.996044,-1.33355 5.535922,-4.89155 0.99821,-2.30641 3.1489,-5.16591 4.77933,-6.35444 6.90496,-5.03352 11.23351,-22.14562 8.83535,-34.9289 -0.71981,-3.83693 -2.08796,-4.43849 -3.06847,-1.34917 -0.35976,1.13352 -1.77442,2.5714 -3.14368,3.19527 -1.36926,0.62388 -3.24272,2.58915 -4.16326,4.36726 -2.03763,3.9359 -12.629239,13.37651 -15.007366,13.37651 -0.944498,0 -4.328694,1.28054 -7.520435,2.84565 -4.675614,2.29275 -6.742182,2.75543 -10.635996,2.38128 -3.438451,-0.33039 -5.499621,0.003 -7.14388,1.15435 -4.015781,2.81276 -11.840916,1.7204 -16.366036,-2.28464 -1.656073,-1.46574 -3.332718,-1.69344 -9.75,-1.32409 l -7.75,0.44605 0,4.53175 c 0,3.68538 0.700363,5.46109 3.75,9.50782 2.150972,2.85424 5.45563,5.78119 7.75,6.8642 2.2,1.03847 5.35,2.77236 7,3.85309 6.431164,4.21231 10.110122,5.93792 12.75,5.98034 2.261007,0.0363 2.75,-0.38984 2.75,-2.39678 z M 190.16225,159.80239 c 1.27295,-1.19588 2.31445,-2.75522 2.31445,-3.46521 0,-0.70999 1.26747,-2.76905 2.8166,-4.57568 6.13453,-7.15427 7.19126,-9.89482 6.53307,-16.94319 -0.37407,-4.00581 -0.18301,-7.2845 0.49872,-8.55832 0.87214,-1.62962 0.6935,-2.87837 -0.84749,-5.92408 -1.07392,-2.12257 -2.21263,-5.97406 -2.53047,-8.55887 -0.45165,-3.67312 -1.05414,-4.85083 -2.75827,-5.3917 -1.19921,-0.38061 -4.91086,-3.31397 -8.24812,-6.518571 -7.02746,-6.748114 -12.45406,-9.500965 -15.50754,-7.866792 -2.42572,1.298204 -3.9565,0.510743 -3.9565,-2.035295 0,-2.075886 -5.04321,-3.972399 -10.59004,-3.98241 -8.78893,-0.01586 -30.25381,7.965627 -32.44796,12.065435 -0.87777,1.640115 -0.63083,2.104403 1.56286,2.938443 1.43294,0.5448 4.3845,0.99055 6.55902,0.99055 6.66734,0 17.9892,4.49092 21.41612,8.49491 1.81246,2.11767 3.90865,3.50516 5.29545,3.50513 3.19176,-6e-5 6.94022,4.07404 7.75771,8.43164 0.42424,2.26136 1.63983,4.30588 3.18788,5.36172 5.96825,4.07061 7.25896,5.96007 7.25896,10.62635 0,3.66131 0.61086,5.20639 3.24412,8.2055 2.7076,3.08379 3.25833,4.53664 3.33008,8.7848 0.0473,2.79947 0.16243,5.42745 0.25588,5.83995 0.31836,1.4052 2.53606,0.75466 4.85547,-1.42431 z M 78.757491,129.8929 c 2.079436,-1.05391 4.83125,-1.9162 6.115141,-1.9162 1.283891,0 3.478512,-0.9 4.876936,-2 1.398423,-1.1 3.011208,-2 3.583967,-2 1.638263,0 6.423155,-6.82797 5.843485,-8.33856 -0.346962,-0.90417 -3.202711,-1.58258 -8.533108,-2.02712 -9.788188,-0.8163 -15.703283,-2.80189 -19.663489,-6.60067 -1.652049,-1.58471 -4.699124,-3.19213 -6.771277,-3.57205 -3.804404,-0.69752 -7.732449,-4.348419 -7.732449,-7.186873 0,-0.800553 -2.25,-3.624182 -5,-6.274732 -4.759591,-4.587466 -5.001501,-5.075959 -5.03121,-10.159591 -0.02272,-3.887246 -0.70159,-6.428837 -2.494876,-9.340409 -1.473777,-2.392817 -2.465726,-5.519344 -2.468791,-7.781385 -0.0069,-5.080908 -2.394407,-5.983881 -5.586801,-2.112957 -4.164961,5.050208 -11.178622,20.54378 -11.746641,25.948994 -0.588308,5.598289 -0.2178,6.594944 3.101638,8.343308 2.108024,1.110306 2.162557,1.355502 0.75,3.37221 -0.837825,1.196163 -1.523319,4.038515 -1.523319,6.316345 0,3.68989 0.427997,4.43809 3.925056,6.86155 2.323124,1.60993 4.543434,4.26555 5.440206,6.5068 1.139282,2.84735 2.840555,4.53474 6.857966,6.80203 2.938549,1.65841 5.945557,3.74156 6.682239,4.6292 0.74318,0.89548 2.954224,1.65828 4.966978,1.71359 1.995155,0.0548 4.752555,0.47554 6.127555,0.93493 3.734211,1.24759 13.982672,0.06 18.280794,-2.11841 z m 20.54686,-28.27155 c 0.180209,-0.92929 -1.256922,-3.895231 -3.193624,-6.59098 l -3.521278,-4.901362 0.403208,-13.404755 c 0.414735,-13.787955 0.895406,-16.099647 4.418021,-21.247558 1.129062,-1.65 2.055806,-4.484847 2.05943,-6.29966 0.0097,-4.847451 2.533882,-8.918535 6.915872,-11.15406 3.1025,-1.582774 4.48388,-3.28928 6.9794,-8.622086 1.71123,-3.656808 3.11132,-7.245646 3.11132,-7.975195 0,-1.801128 -7.76411,-2.869617 -14.82322,-2.039957 -3.892951,0.45754 -6.423261,1.390929 -8.159763,3.01 -1.384361,1.290744 -4.555206,3.230256 -7.046322,4.310027 -9.558052,4.142924 -18.665923,19.919568 -17.29092,29.95131 0.494744,3.609548 0.173638,4.82302 -2.046479,7.733745 -3.083539,4.042727 -3.283762,6.22185 -0.883299,9.61337 0.9625,1.359878 2.225733,3.822506 2.807184,5.472506 1.809422,5.134644 8.509282,13.485106 12.671632,15.793461 17.013878,9.435554 17.001573,9.431114 17.598838,6.351194 z M 116.0192,88.476695 c 2.07016,-2.75 4.48247,-5.414365 5.36071,-5.920811 0.87823,-0.506447 3.53024,-2.868947 5.89335,-5.25 3.25517,-3.279891 5.073,-4.336753 7.5,-4.360399 1.76189,-0.01716 5.00344,-1.139859 7.20344,-2.494876 2.70011,-1.663044 5.46238,-2.462603 8.5,-2.460393 2.475,0.0018 7.46786,-0.757236 11.09525,-1.686748 6.40587,-1.641492 6.70739,-1.631893 10.5,0.334285 2.19182,1.136284 6.97551,2.300799 10.90475,2.654588 3.85,0.346655 8.0125,0.919932 9.25,1.273949 2.78474,0.796644 2.90392,-0.714566 0.60953,-7.729263 -2.13013,-6.512481 -9.55537,-14.297434 -15.0473,-15.776258 -2.52849,-0.680852 -4.45201,-1.976733 -5.30788,-3.575945 -1.19935,-2.240998 -1.96864,-2.508129 -7.22299,-2.508129 -3.30986,0 -7.16768,-0.665536 -8.82466,-1.522392 -3.04851,-1.576444 -5.05531,-1.239494 -16.4567,2.763144 -1.65,0.579259 -5.925,2.085055 -9.5,3.346213 -3.575,1.261157 -6.78943,2.882519 -7.14318,3.603025 -0.35375,0.720505 -1.1511,2.59032 -1.7719,4.155143 -0.6669,1.681003 -2.36353,3.311215 -4.14656,3.984237 -1.96804,0.74285 -3.19224,2.014249 -3.51921,3.654867 -0.27575,1.38367 -1.38412,4.315763 -2.46304,6.515763 -1.5542,3.169152 -1.96109,6.087506 -1.95889,14.05 0.002,6.401196 0.43241,10.479627 1.18611,11.233333 0.65084,0.650834 1.27602,1.078334 1.3893,0.95 0.11328,-0.128333 1.89972,-2.483333 3.96987,-5.233333 z"
       id="path3343"
       inkscape:connector-curvature="0" />
    <path
       style="fill:#4e4e4e"
       d="m 109.862,222.45786 c -3.91308,-0.71635 -8.86308,-2.18493 -10.999999,-3.2635 -2.136917,-1.07857 -5.010304,-2.30677 -6.385304,-2.72933 -1.375,-0.42256 -5.045497,-2.76368 -8.156659,-5.2025 -6.57737,-5.15593 -15.745251,-8.10697 -28.373872,-9.13323 -7.110179,-0.57781 -8.600065,-1.06536 -13,-4.25414 -2.733208,-1.98085 -6.531701,-4.12971 -8.441095,-4.77524 -4.778941,-1.61568 -8.879254,-5.81142 -9.639493,-9.86384 -0.467599,-2.49252 -1.651154,-4.03113 -4.469457,-5.81025 -4.465794,-2.81913 -5.424647,-4.36545 -6.416222,-10.34728 -0.400982,-2.41898 -1.298898,-5.79398 -1.995371,-7.5 -2.3009381,-5.63618 -2.8583006,-14.41802 -1.086682,-17.12185 1.998429,-3.04999 2.006996,-5.14102 0.02561,-6.24986 -1.1617094,-0.65012 -1.6975793,-3.24646 -2.1258037,-10.29969 -0.4790467,-7.89032 -0.9403407,-9.83874 -2.8245679,-11.93045 -1.2386081,-1.375 -2.7569986,-3.48292 -3.3742012,-4.68426 -1.4970748,-2.91395 -1.4262241,-9.91595 0.1278136,-12.631486 0.7253198,-1.267429 1.25,-5.682897 1.25,-10.519427 0,-7.890856 0.1494298,-8.463777 2.8032607,-10.747847 1.6046932,-1.381109 3.4137945,-4.468571 4.2312045,-7.221086 1.077869,-3.629581 3.148667,-6.563589 8.446739,-11.967759 6.017409,-6.137911 7.018796,-7.663611 7.018796,-10.693746 0,-3.90396 0.432739,-4.244512 2.617423,-2.059829 2.939048,2.939049 15.382577,-0.354824 15.382577,-4.071855 0,-0.853152 2.417604,-4.105278 5.372453,-7.226947 2.954849,-3.12167 6.124417,-7.153756 7.043484,-8.960192 0.99039,-1.946621 4.402717,-5.111009 8.377547,-7.768835 3.688584,-2.466423 8.281516,-5.6410122 10.206516,-7.0546429 2.953844,-2.1691657 4.280223,-2.4986863 8.5,-2.1117067 2.75,0.252192 5.697003,0.7556926 6.548896,1.1188904 0.984882,0.4198968 2.972811,-0.5705182 5.459258,-2.7198815 l 3.910362,-3.380241 5.493717,1.4346085 c 3.02155,0.7890346 8.19493,1.509225 11.49642,1.6004231 4.16683,0.1151015 6.62795,0.7149497 8.04703,1.9612985 8.32668,7.3131466 12.85316,10.7122076 14.3277,10.7590596 0.94414,0.03 8.10857,0.423667 15.92096,0.874818 l 14.20433,0.820274 4.68646,4.125182 c 3.56134,3.134823 5.51665,4.125182 8.14453,4.125182 5.61126,0 9.86507,2.627671 12.16104,7.512127 1.19871,2.550148 3.19636,4.903669 4.8228,5.681962 1.52708,0.73074 3.54301,2.898509 4.47985,4.817265 4.56749,9.354698 5.79665,12.97686 5.79665,17.081864 0,2.453973 0.71183,5.478044 1.58184,6.720156 1.19282,1.702997 1.39402,3.294739 0.81813,6.472507 -0.96058,5.300457 -0.77955,6.546712 1.64052,11.293543 1.07773,2.113903 1.95951,5.772015 1.95951,8.129137 0,3.533575 0.64607,5.000804 3.6815,8.360664 3.5733,3.95522 3.70391,4.3741 4.4438,14.25288 1.20567,16.09755 1.12297,17.22758 -1.4893,20.35117 -1.64855,1.97124 -2.50423,4.49127 -2.82734,8.32673 -0.51215,6.07956 -4.59139,12.77743 -12.45626,20.4525 -2.28117,2.22612 -4.64484,5.0326 -5.2526,6.23662 -0.79512,1.57521 -2.40082,2.38343 -5.72579,2.88204 -4.1663,0.62478 -4.91843,1.17174 -7.64688,5.56089 -1.66434,2.67737 -3.46678,4.86795 -4.0054,4.86795 -0.53863,0 -2.64703,1.4625 -4.68533,3.25 -2.0383,1.7875 -5.13034,4.01657 -6.8712,4.95349 -1.74086,0.93692 -3.1652,2.47238 -3.1652,3.41214 0,2.94839 -4.94882,10.30654 -7.98923,11.8788 -1.6013,0.82806 -4.1084,1.50557 -5.57133,1.50557 -1.82855,0 -4.04643,1.40645 -7.09622,4.5 -4.35337,4.41584 -4.55778,4.5 -10.92962,4.5 -4.51983,0 -7.68474,0.60784 -10.4136,2 -4.42931,2.25966 -7.44903,2.34215 -17.6147,0.48116 z m 11.6147,-19.36169 c 3.025,-0.40146 7.075,-1.72309 9,-2.93695 1.925,-1.21386 5.19389,-2.67057 7.2642,-3.23714 2.72296,-0.74517 4.4517,-2.11919 6.24958,-4.96721 1.36696,-2.1654 4.22001,-4.82204 6.34011,-5.90363 3.55309,-1.81265 3.90301,-2.37414 4.47163,-7.17524 0.36621,-3.09205 1.62716,-6.66972 3.10297,-8.804 2.1785,-3.15049 2.41265,-4.30225 1.8926,-9.30939 -0.37331,-3.59419 -0.13421,-6.82286 0.64446,-8.70274 1.0792,-2.60542 0.97945,-3.35167 -0.77793,-5.81968 -1.10872,-1.55706 -2.33379,-4.52572 -2.72237,-6.59702 -0.38858,-2.0713 -2.20011,-5.55374 -4.02563,-7.73874 -1.82552,-2.18501 -3.5758,-4.78144 -3.88951,-5.76986 -0.67057,-2.11276 -6.5842,-5.15787 -10.01665,-5.15787 -1.52085,0 -2.63111,-0.73232 -3.0338,-2.00106 -0.78937,-2.48711 -3.64582,-4.06996 -8.09012,-4.48302 -4.26308,-0.39621 -4.43051,1.17601 -0.85883,8.0646 2.42263,4.67248 3.7292,9.58642 5.10349,19.19398 0.44147,3.08635 0.19049,4.75413 -0.90294,6 -0.83291,0.94903 -1.71874,4.33166 -1.96853,7.51697 -0.30952,3.94705 -1.14793,6.65406 -2.63262,8.5 -2.27676,2.83073 -3.1339,4.48271 -5.23262,10.08498 -0.76888,2.05243 -3.14712,4.72871 -6.06486,6.8249 -3.42891,2.46342 -5.08327,4.47441 -5.79173,7.04026 -0.54547,1.97551 -2.44559,5.09181 -4.22249,6.92511 -2.87418,2.9654 -3.8253,3.33328 -8.617913,3.33328 -3.665829,0 -5.262674,0.37348 -4.997548,1.16886 0.81948,2.45844 16.527511,6.18455 21.777051,5.16574 1.375,-0.26685 4.975,-0.81366 8,-1.21513 z M 63.476697,177.9767 c 0,-2.69196 1.738129,-3.40044 2.494654,-1.01684 1.418904,4.47057 13.835531,3.93855 21.402306,-0.91704 2.627974,-1.68637 5.651111,-3.06612 6.718081,-3.06612 2.970399,0 6.158762,-2.69364 6.835522,-5.77489 0.3349,-1.52482 2.1471,-3.99974 4.02709,-5.49983 4.37444,-3.49044 8.52235,-11.70279 8.52235,-16.87318 0,-2.19097 0.47121,-4.86404 1.04713,-5.94016 1.0919,-2.04024 0.34957,-12.65204 -1.04263,-14.90467 -0.86977,-1.40731 -7.71577,4.71407 -10.10147,9.03227 -2.65285,4.80176 -11.574169,12.09916 -16.010107,13.09585 -2.306166,0.51816 -5.432473,1.82468 -6.947348,2.90336 -2.043435,1.45506 -4.399208,1.96125 -9.127442,1.96125 -4.256161,0 -7.141337,0.53808 -8.685834,1.61989 -3.197715,2.23976 -10.192459,1.33434 -14.382753,-1.86175 -2.999357,-2.28772 -3.89119,-2.44868 -11.029561,-1.99056 -4.271489,0.27412 -8.017678,0.90508 -8.324864,1.40211 -2.339309,3.78508 5.514285,17.41434 11.364811,19.72269 2.852523,1.12547 6.789912,3.35227 11.499146,6.50336 3.314625,2.21791 9.938845,4.59997 10.988301,3.95137 0.41394,-0.25583 0.752618,-1.31203 0.752618,-2.34711 z M 189.3549,161.07314 c 0.75801,-0.48011 2.55801,-2.88833 4,-5.35159 1.44199,-2.46327 4.08732,-6.65642 5.87851,-9.31811 3.07482,-4.56918 3.22088,-5.18913 2.61523,-11.10063 -0.42004,-4.09981 -0.21368,-7.29398 0.5978,-9.25305 1.09087,-2.63361 0.98727,-3.31226 -0.86523,-5.66733 -1.17371,-1.49213 -2.10451,-4.13502 -2.10451,-5.97549 0,-4.46981 -1.62382,-8.43024 -3.4565,-8.43024 -0.82831,0 -4.55195,-2.86052 -8.27476,-6.356715 -7.39068,-6.940787 -12.80607,-9.496457 -16.23461,-7.661557 -2.10098,1.124413 -2.22716,0.996624 -3.54412,-3.589543 -0.37296,-1.298805 -5.17357,-2.39219 -10.50314,-2.39219 -4.80736,0 -19.63859,4.283085 -26.00843,7.510925 -4.57359,2.317613 -7.8685,5.932351 -6.58102,7.21983 0.3077,0.3077 3.60666,0.85033 7.33102,1.20584 9.83395,0.9387 19.93531,4.80735 23.0125,8.81341 1.6039,2.08804 3.36407,3.25 4.9232,3.25 3.46855,0 6.99017,3.99438 7.81241,8.8612 0.54532,3.22772 1.36369,4.52194 3.586,5.67115 5.05514,2.61411 6.93745,5.42467 6.93745,10.3586 0,3.71502 0.5612,5.09285 3.17117,7.78565 2.78562,2.87404 3.15674,3.90478 3.05257,8.47816 -0.15677,6.88232 0.94627,8.2904 4.65446,5.94168 z M 79.633338,129.89679 c 2.070026,-1.05605 4.620924,-1.92009 5.668662,-1.92009 1.047739,0 3.049144,-0.9 4.447568,-2 1.398423,-1.1 2.994107,-2 3.545965,-2 1.553498,0 6.181164,-5.93918 6.181164,-7.93295 0,-1.5 -1.2389,-1.88282 -7.887697,-2.43731 -10.411627,-0.86829 -16.718928,-2.86465 -20.509395,-6.49154 -1.706599,-1.63295 -4.998933,-3.46998 -7.316296,-4.08229 -4.181722,-1.10491 -7.286612,-4.098652 -7.286612,-7.025749 0,-0.838652 -2.25,-3.593356 -5,-6.121564 -4.887636,-4.493439 -5,-4.725994 -5,-10.348301 0,-4.188933 -0.555038,-6.531039 -2.042929,-8.62059 -1.123611,-1.577966 -2.311292,-5.134933 -2.639291,-7.90437 -0.81358,-6.86941 -3.014014,-6.702315 -8.262744,0.627451 -2.23027,3.114535 -4.055036,6.067402 -4.055036,6.561925 0,0.494524 -1.079667,3.233767 -2.399261,6.087208 -1.319593,2.853441 -2.698652,7.748992 -3.064575,10.879002 -0.655242,5.604766 -0.618848,5.714955 2.403911,7.278085 2.849164,1.47336 2.969391,1.746469 1.676817,3.809073 -0.765826,1.222053 -1.670091,3.81231 -2.00948,5.75612 -0.570668,3.26844 -0.277467,3.81808 3.899094,7.30925 2.48389,2.07627 5.150613,5.29349 5.926051,7.14938 0.835013,1.99847 2.76718,4.0689 4.738665,5.07777 1.830828,0.93689 4.968535,2.99177 6.972682,4.56641 2.278373,1.7901 4.901582,2.88933 7,2.93328 1.845853,0.0386 4.256096,0.48164 5.356096,0.98442 3.024277,1.3823 15.396517,0.0387 19.656641,-2.13462 z M 99.229893,102.8235 c 1.348727,-1.34872 0.455047,-3.434802 -3.79715,-8.863514 -2.667398,-3.405425 -2.744337,-3.848443 -2.431369,-14 0.521353,-16.910842 0.896706,-19.237887 3.789831,-23.495503 1.598414,-2.352279 2.685492,-5.313619 2.685492,-7.31563 0,-4.578738 2.559123,-8.556087 7.174063,-11.14983 2.9594,-1.663274 4.54741,-3.648865 6.84007,-8.552555 1.64223,-3.512504 2.98587,-7.059746 2.98587,-7.882759 0,-2.068007 -5.72754,-2.983767 -14.21259,-2.272411 -5.738912,0.48113 -7.376943,1.029465 -9.311715,3.117118 -1.291274,1.393308 -4.173193,3.263676 -6.404265,4.156374 -6.159516,2.464549 -13.580598,11.612096 -16.138197,19.892639 -1.368966,4.432195 -1.866018,7.961316 -1.460421,10.369132 0.495457,2.941259 0.12084,4.319031 -1.928974,7.094414 -3.25246,4.403727 -3.203852,5.406408 0.637293,13.145998 5.002716,10.080058 9.607308,16.232885 13.641822,18.228712 2.022374,1.000444 6.377044,3.31133 9.677044,5.135305 7.125514,3.93841 6.801291,3.84442 8.253196,2.39251 z M 114.89138,90.099808 c 4.46981,-6.449938 17.02277,-17.123113 20.13888,-17.123113 1.4907,0 4.282,-0.971321 6.20288,-2.158491 2.10067,-1.298286 6.33219,-2.49714 10.61804,-3.008255 18.17254,-2.167192 18.04946,-2.167784 22.51094,0.108294 2.39444,1.221551 5.05666,1.894223 6.13819,1.550959 1.05042,-0.333392 4.45194,-0.13624 7.55892,0.438116 3.10698,0.574357 6.00044,0.827116 6.42991,0.561687 0.42947,-0.265428 -0.0912,-3.284625 -1.15711,-6.709325 -1.40438,-4.512262 -2.87378,-6.998093 -5.33669,-9.028228 -1.86928,-1.540825 -3.66946,-3.654602 -4.0004,-4.697281 -0.39921,-1.257821 -1.92786,-2.119833 -4.54256,-2.561585 -2.59528,-0.43847 -4.77837,-1.661128 -6.39371,-3.580848 -2.11256,-2.510628 -3.15267,-2.915043 -7.49717,-2.915043 -2.77438,0 -6.91139,-0.747051 -9.19336,-1.660113 -3.12557,-1.250606 -4.58024,-1.390818 -5.89713,-0.568408 -0.96145,0.600437 -3.49099,1.40763 -5.6212,1.793761 -2.13021,0.386131 -5.22311,1.391934 -6.87311,2.235117 -1.65,0.843184 -5.43545,2.260587 -8.4121,3.149785 -5.51326,1.646941 -6.31912,2.382372 -8.09816,7.390369 -0.61564,1.733022 -2.1718,3.279397 -3.99129,3.966174 -2.42192,0.914176 -3.26803,2.108821 -4.50347,6.358593 -0.83669,2.878111 -1.96535,5.50739 -2.50812,5.842842 -0.55473,0.342841 -0.98686,5.546778 -0.98686,11.88423 0,14.198502 0.7677,15.436361 5.41468,8.730763 z"
       id="path3341"
       inkscape:connector-curvature="0" />
    <path
       style="fill:#2e2e2e"
       d="m 109.65719,222.38324 c -4.02573,-0.73113 -8.75073,-2.1889 -10.500001,-3.23948 -1.749271,-1.05058 -4.354304,-2.18554 -5.788963,-2.52213 -1.434659,-0.3366 -5.237352,-2.65336 -8.450429,-5.14837 -3.213078,-2.49501 -7.664266,-5.00335 -9.89153,-5.57409 -2.227263,-0.57074 -6.29957,-1.67192 -9.04957,-2.44708 -2.75,-0.77516 -7.964238,-1.5534 -11.587195,-1.72941 -5.615371,-0.27282 -7.172757,-0.78381 -10.556242,-3.46358 -2.182977,-1.72895 -5.968739,-3.91826 -8.412806,-4.86513 -5.916055,-2.29198 -8.734432,-4.98657 -10.147008,-9.70133 -0.643289,-2.1471 -2.265446,-4.64905 -3.604793,-5.55988 -5.205561,-3.54008 -7.191956,-6.06527 -7.191956,-9.14272 0,-1.69267 -0.682072,-4.71001 -1.515716,-6.7052 -0.833643,-1.99519 -1.991644,-6.69505 -2.573335,-10.44413 -0.8946305,-5.76604 -0.8151543,-7.16269 0.515716,-9.06277 1.989352,-2.8402 1.989478,-4.68393 4.73e-4,-6.88175 C 9.8360624,134.71631 9.1063941,131.08695 8.6316279,124.59426 8.1290111,117.72069 7.4874038,114.67115 6.3507936,113.75351 1.4303482,109.78101 -0.02188433,101.77532 3.0872863,95.762838 4.2970474,93.423418 4.5370796,91.22705 4.0517719,86.937497 3.3254027,80.517242 4.5052455,76.843234 8.0363629,74.529557 9.472512,73.588556 10.53568,71.587051 10.972378,69.002256 c 0.699537,-4.140519 3.500723,-8.026184 11.287833,-15.657914 3.479982,-3.410544 4.216486,-4.791329 4.216486,-7.904988 0,-3.684096 0.04601,-3.730991 1.960715,-1.998212 3.49182,3.160054 16.039285,-0.01743 16.039285,-4.061737 0,-0.853152 2.417604,-4.105278 5.372453,-7.226947 2.954849,-3.12167 6.085838,-7.079153 6.957754,-8.794408 0.871915,-1.715255 3.966812,-4.627962 6.877547,-6.472683 2.910735,-1.844721 7.535936,-5.105827 10.278223,-7.2469025 4.645595,-3.6271077 5.328272,-3.8564654 10,-3.3596795 2.757713,0.2932519 5.75247,0.8245698 6.655015,1.1807065 1.061169,0.4187278 2.926901,-0.4815218 5.280316,-2.5478473 l 3.639324,-3.1953685 6.160251,1.3072932 c 3.38813,0.7190112 8.63902,1.3401056 11.66863,1.3802098 3.79019,0.050172 6.14815,0.6329703 7.55944,1.8684007 12.25331,10.7264986 11.42436,10.3105486 23.16668,11.6244616 5.98641,0.669851 11.78437,1.115593 12.88437,0.990538 5.72388,-0.650725 8.6436,0.224457 12.56357,3.765911 3.22174,2.910647 5.21968,3.832501 9.59222,4.425868 6.26541,0.850234 8.87453,2.736846 11.35254,8.208824 1.05937,2.339326 3.01244,4.46331 5.05742,5.5 2.47686,1.25563 3.81686,2.971639 5.22326,6.688913 1.04044,2.75 2.52604,6.194431 3.30135,7.654292 0.7753,1.459861 1.40964,4.519708 1.40964,6.79966 0,2.279952 0.68314,5.466418 1.51809,7.081035 1.24215,2.402041 1.31341,3.748551 0.39204,7.407625 -0.99934,3.968762 -0.88945,4.854782 0.97664,7.874173 1.15647,1.871219 2.47544,6.127853 2.93102,9.459186 0.63835,4.667673 1.55373,6.883134 3.99083,9.658844 3.75405,4.27563 3.90364,4.8877 4.65964,19.06519 0.55694,10.44456 0.46602,11.17673 -1.80066,14.5 -1.56635,2.29647 -2.5455,5.42666 -2.84749,9.10295 -0.5,6.08667 -1.64877,7.88831 -13.07011,20.49822 -3.1625,3.49161 -5.75,6.75048 -5.75,7.24194 0,0.49145 -1.9125,1.14888 -4.25,1.46095 -3.01468,0.40247 -4.83133,1.33647 -6.25,3.21333 -4.51012,5.96675 -12.58991,13.07551 -16.91609,14.8831 -2.5985,1.08572 -3.46487,2.15146 -3.97963,4.89535 -0.36846,1.96407 -2.29632,5.3193 -4.38115,7.6249 -2.98361,3.29958 -4.71384,4.29543 -8.71093,5.01366 -3.47939,0.6252 -5.44511,1.59573 -6.5,3.20921 -3.36848,5.15223 -4.73955,5.85639 -11.403,5.85639 -4.23127,0 -7.86382,0.6684 -10.75,1.97804 -4.94465,2.24369 -7.36152,2.30227 -17.67871,0.4285 z m 12.31951,-19.36825 c 2.75,-0.43873 7.21377,-1.97683 9.91948,-3.41799 2.70571,-1.44117 5.74039,-2.6203 6.74373,-2.6203 1.00333,0 3.20304,-1.9125 4.88824,-4.25 1.68519,-2.3375 4.72551,-5.18797 6.75627,-6.33437 3.28327,-1.85347 3.80306,-2.70403 4.69228,-7.67825 0.55,-3.07663 2.03367,-6.98658 3.29704,-8.68876 2.02651,-2.73039 2.2176,-3.79705 1.62252,-9.05687 -0.44227,-3.90909 -0.25126,-6.98384 0.5547,-8.92961 1.06412,-2.56902 0.96554,-3.34335 -0.73398,-5.76488 -1.07976,-1.53849 -2.28915,-4.58181 -2.68752,-6.76294 -0.39837,-2.18112 -2.06585,-5.49361 -3.70552,-7.36109 -1.63967,-1.86748 -3.39821,-4.49219 -3.90787,-5.83269 -0.91093,-2.39593 -6.19549,-5.34054 -9.58443,-5.34054 -0.94011,0 -2.90516,-1.43246 -4.36677,-3.18324 -2.11714,-2.53598 -3.50444,-3.22648 -6.82283,-3.39591 -3.71438,-0.18964 -4.16534,0.0306 -4.16534,2.0343 0,1.23584 1.14844,4.40689 2.55209,7.04679 1.40364,2.63989 3.27668,8.52443 4.16231,13.07674 1.49327,7.67578 1.48949,8.4612 -0.0521,10.81394 -0.91427,1.39536 -1.66231,4.2575 -1.66231,6.36031 0,2.16142 -1.05783,5.76273 -2.43364,8.28518 -1.3385,2.45404 -3.15042,6.03689 -4.0265,7.96189 -2.83142,6.22146 -3.96528,7.72361 -8.40915,11.14047 -2.82235,2.17009 -4.83014,4.72713 -5.67092,7.22227 -0.7159,2.12451 -2.54641,5.16201 -4.0678,6.75 -2.38036,2.48457 -3.51878,2.88726 -8.162408,2.88726 -6.371482,0 -6.660295,1.60741 -0.67329,3.74725 8.915838,3.18664 12.838348,3.38183 25.943718,1.29104 z m -58.325485,-25.10907 1.07048,-3.07078 1.166331,2.32078 c 1.06403,2.11722 1.823066,2.32078 8.653749,2.32078 6.742461,0 7.990989,-0.32336 12.548717,-3.25 2.783715,-1.7875 5.838987,-3.25 6.789494,-3.25 3.142891,0 5.633,-2.05022 7.177064,-5.9092 0.83815,-2.09475 2.66792,-4.4209 4.06616,-5.16921 5.74895,-3.07675 9.56371,-15.21079 9.52433,-30.29514 -0.0226,-8.66977 -1.13399,-9.94792 -5.02653,-5.78093 -1.6207,1.73496 -3.44119,3.15448 -4.04552,3.15448 -0.60433,0 -1.09879,0.69523 -1.09879,1.54495 0,0.84973 -2.8125,4.39003 -6.250003,7.86735 -5.081141,5.13999 -7.300883,6.62583 -11.869176,7.94495 -3.090546,0.8924 -6.183146,2.3021 -6.872444,3.13265 -0.880583,1.06104 -3.224113,1.52064 -7.880825,1.54554 -3.84903,0.0206 -7.675651,0.63458 -9.127555,1.46456 -3.872396,2.21366 -8.18178,1.77058 -13.097089,-1.34662 -4.216378,-2.67395 -4.986479,-2.8178 -12.695781,-2.37151 l -8.20713,0.4751 0,2.80642 c 0,7.14496 6.217353,15.36536 14.701243,19.43755 3.189316,1.53084 6.71874,3.61091 7.843164,4.62237 1.791509,1.61154 8.497677,4.60768 10.757613,4.80623 0.44111,0.0387 1.283735,-1.31139 1.872498,-3.00032 z M 192.5985,156.61495 c 1.44199,-2.67397 3.02121,-5.14897 3.50936,-5.5 0.48816,-0.35104 2.15256,-2.58903 3.69868,-4.97332 2.60079,-4.0107 2.75965,-4.81575 2.12316,-10.75925 -0.46317,-4.32497 -0.27972,-7.4098 0.5614,-9.44045 1.08122,-2.61029 1.00699,-3.28411 -0.55152,-5.00625 -1.10547,-1.22152 -1.97876,-4.13461 -2.26147,-7.54373 -0.43423,-5.23628 -0.69609,-5.70093 -4.58098,-8.1285 -2.26624,-1.41612 -6.19803,-4.72395 -8.73732,-7.350736 -5.23329,-5.413613 -11.75712,-8.120303 -14.87657,-6.172178 -1.54144,0.962646 -1.90952,0.758839 -2.43891,-1.350413 -0.36144,-1.440091 -1.76755,-2.931474 -3.34556,-3.548442 -6.83122,-2.670872 -28.93384,2.246009 -37.2825,8.293751 -6.24097,4.520935 -5.00865,6.841268 3.63337,6.841268 4.34056,0 18.63569,4.2659 21.28124,6.35067 0.74479,0.58693 1.74615,2.09813 2.22524,3.35823 0.5027,1.32219 1.70745,2.2911 2.84878,2.2911 5.20367,0 7.9086,2.91177 9.505,10.23181 0.35754,1.63941 1.75431,3.33092 3.49299,4.23002 4.58631,2.37167 7.07381,6.24851 7.07381,11.02471 0,3.3211 0.63726,4.88366 3,7.35604 2.65968,2.7831 3,3.82843 3,9.21474 0,6.03789 0.017,6.07356 2.75,5.7591 2.1243,-0.24443 3.34653,-1.4226 5.3718,-5.17817 z M 71.814117,132.33393 c 2.289419,-0.35115 5.832153,-1.47518 7.872742,-2.49784 2.040589,-1.02266 4.515589,-1.86794 5.5,-1.87839 4.776986,-0.0507 16.856271,-10.94826 14.515421,-13.09536 -0.399071,-0.36604 -5.15261,-1.17394 -10.56342,-1.79533 -10.387707,-1.19294 -14.103142,-2.57407 -19.446959,-7.22898 -1.806638,-1.57373 -4.198722,-2.86133 -5.315742,-2.86133 -3.552899,0 -5.677226,-1.85122 -7.449456,-6.491741 -1.143679,-2.994681 -2.860558,-5.216914 -5.099716,-6.60079 -4.396278,-2.717049 -5.35029,-4.673773 -5.35029,-10.973699 0,-3.364443 -0.67445,-6.297457 -1.912214,-8.315741 C 43.512765,68.87981 42.33584,65.333662 41.949095,62.714398 41.562349,60.095135 40.770253,57.658122 40.18888,57.298814 36.84965,55.235057 25.057555,76.720398 23.896363,86.983978 c -0.645365,5.704271 -0.57362,5.965448 1.955193,7.117653 2.701814,1.231029 3.299333,2.761101 1.728061,4.425064 -0.493394,0.5225 -1.195094,2.786415 -1.559332,5.030925 -0.638474,3.9344 -0.496688,4.21659 3.948982,7.85948 2.56986,2.10581 5.284389,5.46094 6.131814,7.57886 0.977841,2.44387 2.350395,4.00858 3.845453,4.38381 1.27868,0.32093 4.213639,2.16153 6.522131,4.09022 2.747706,2.29564 5.286994,3.53325 7.352646,3.58356 1.735462,0.0423 4.955386,0.66913 7.155386,1.39302 2.2,0.7239 4.601839,1.13834 5.33742,0.92099 0.735581,-0.21735 3.210581,-0.68248 5.5,-1.03363 z m 28.431733,-30.39705 c 0.16066,-0.83426 -1.437131,-3.834569 -3.550656,-6.667333 l -3.842774,-5.150481 0.276333,-9.321185 c 0.462234,-15.591959 1.048738,-19.600993 3.431585,-23.45652 1.243903,-2.012677 2.617218,-5.908779 3.051812,-8.658004 0.83704,-5.295054 3.40152,-8.875435 8.11261,-11.326354 2.90744,-1.512576 8.75194,-11.75171 8.75194,-15.332739 0,-2.675648 -3.04392,-3.34817 -13.08945,-2.891978 -6.965242,0.316309 -8.364551,0.686849 -9.939683,2.632056 -1.008267,1.245157 -3.858455,3.159783 -6.333752,4.254724 -10.043488,4.442712 -18.637118,18.741051 -18.637118,31.008997 0,3.618977 -0.589965,5.883192 -2,7.675761 -2.544513,3.234825 -2.544513,6.765176 0,10 1.1,1.398424 2,3.226961 2,4.063416 0,2.45118 9.139205,15.120308 11.416596,15.826139 1.145872,0.355139 3.432294,1.59917 5.080938,2.764512 4.312423,3.048229 11.753168,6.517629 13.490982,6.290439 0.818685,-0.10703 1.619967,-0.87718 1.780637,-1.71145 z m 14.32143,-11.210185 c 2.90546,-4.240569 8.07339,-9.75 9.14564,-9.75 0.46414,0 2.55619,-1.8 4.649,-4 2.91647,-3.065848 4.56421,-4 7.05557,-4 1.78776,0 4.56681,-0.937318 6.17567,-2.08293 2.7434,-1.953471 5.92568,-2.580999 23.14111,-4.563299 3.57213,-0.411319 5.69066,-0.06146 8.5024,1.404103 2.27129,1.183859 6.10484,2.034668 9.74244,2.16221 3.29867,0.115659 7.34759,0.293455 8.99759,0.395103 3.33173,0.205249 3.36325,0.02258 1.27723,-7.401975 -0.76827,-2.734433 -2.69986,-5.977813 -4.78297,-8.031235 -1.92184,-1.894446 -4.27736,-4.442891 -5.23447,-5.663212 -1.09266,-1.393137 -2.83322,-2.218765 -4.67752,-2.218765 -2.11269,0 -3.63654,-0.893443 -5.42795,-3.182446 -2.27718,-2.909696 -2.92576,-3.162591 -7.56764,-2.950786 -3.12222,0.142465 -6.43765,-0.414012 -8.61092,-1.445296 -3.3088,-1.570125 -3.89838,-1.569445 -9.25484,0.01068 -4.99048,1.472159 -14.91257,4.929527 -21.97033,7.655599 -1.30089,0.502469 -2.94749,2.613506 -3.90489,5.00629 -1.19851,2.995374 -2.57885,4.523257 -5.00059,5.535126 -2.38908,0.998217 -3.34511,2.041121 -3.34511,3.649062 0,1.238264 -1.00076,4.044725 -2.22391,6.23658 -1.86475,3.341588 -2.22279,5.519429 -2.21696,13.485191 0.01,13.580605 1.32214,15.893554 5.53145,9.75 z"
       id="path3339"
       inkscape:connector-curvature="0" />
    <path
       style="fill:#161616"
       d="m 114.4767,223.00952 c -1.925,-0.46579 -5.525,-1.29454 -8,-1.84166 -7.176644,-1.58646 -15.745257,-5.61838 -22.534879,-10.60366 -4.592849,-3.37231 -7.867603,-4.92839 -12.128381,-5.76312 -3.210209,-0.62891 -6.647701,-1.69297 -7.638872,-2.36459 -1.161062,-0.78673 -4.006881,-1.04732 -8,-0.73256 -5.869122,0.46263 -6.480221,0.29363 -11.52099,-3.18622 -2.927716,-2.02112 -7.427716,-4.57684 -10,-5.67937 -6.191139,-2.65364 -7.977662,-4.40808 -9.23195,-9.06615 -0.738359,-2.74206 -2.187229,-4.68343 -4.919085,-6.5912 -4.184946,-2.92252 -6.025846,-5.89538 -6.025846,-9.73111 0,-1.33799 -0.655545,-4.12931 -1.456767,-6.20294 -0.801222,-2.07363 -1.944777,-6.57586 -2.541233,-10.00496 -1.0076439,-5.79306 -0.9269741,-6.44774 1.138772,-9.24181 l 2.223239,-3.0071 -2.23884,-2.38313 C 9.7236881,134.61071 9.2716711,132.71655 8.7959248,124.85175 8.273467,116.21474 7.9961934,115.23037 5.2738265,112.34765 1.4118077,108.25816 0.59345915,102.57795 2.9698361,96.355488 4.2095162,93.109432 4.5561263,90.295165 4.144397,86.818755 3.4450145,80.913564 4.2455225,78.527202 8.3653644,74.235797 c 1.8874066,-1.966005 3.1113326,-4.28575 3.1113326,-5.897008 0,-2.846779 4.888842,-9.454224 11.25,-15.204779 2.926555,-2.645637 3.75,-4.133036 3.75,-6.773677 0,-3.514517 0.803193,-4.180445 2.724639,-2.258999 1.159007,1.159007 10.722921,0.479279 12.89444,-0.916436 0.606021,-0.389512 1.89265,-2.283203 2.859175,-4.208203 0.966526,-1.925 3.890506,-5.615251 6.497733,-8.200558 2.607228,-2.585308 5.293707,-6.036328 5.969956,-7.668936 1.127729,-2.722579 4.199254,-5.068077 20.372147,-15.5567153 2.661054,-1.7257784 3.547602,-1.8050792 8.520011,-0.7621053 5.842168,1.2254076 5.316595,1.3732331 11.712403,-3.2942932 1.814626,-1.3242763 2.849929,-1.3270678 8.999999,-0.024267 3.82223,0.8096812 8.89202,1.4799614 11.26622,1.4895114 4.48784,0.018052 7.83795,1.9089913 15.18328,8.5700654 3.01154,2.730996 4.68627,3.332771 12,4.311904 4.675,0.625871 11.56708,1.137372 15.31574,1.13667 7.299,-0.0014 9.6367,0.800387 13.88708,4.762796 1.73446,1.616957 4.55054,2.811786 7.86012,3.334961 6.7672,1.06975 9.66333,3.096581 11.90832,8.333931 1.3203,3.080116 2.6026,4.49425 4.50921,4.972778 2.04105,0.512271 3.2464,2.004978 5.15301,6.381471 1.36881,3.142033 3.00422,6.612787 3.63423,7.712787 1.46612,2.559845 2.8629,12.040471 3.09394,21 0.11181,4.336206 0.81743,8.177252 1.85424,10.093619 0.92055,1.701491 1.98798,5.526491 2.37207,8.5 0.53174,4.116702 1.48562,6.286706 3.99868,9.096726 3.64564,4.07643 4.05116,5.76077 4.89343,20.32521 0.54979,9.50697 0.45531,10.18348 -1.86067,13.32262 -1.60479,2.17516 -2.67583,5.34004 -3.12926,9.24675 -0.72707,6.2645 -2.73707,9.64408 -10.87665,18.28784 -2.13758,2.26998 -5.00349,5.58974 -6.36869,7.37724 -1.91861,2.51211 -3.23367,3.25 -5.79206,3.25 -3.63244,0 -5.15989,1.17206 -8.43635,6.47348 -1.19873,1.93958 -2.60286,3.52652 -3.12029,3.52652 -0.51743,0 -2.84323,1.70697 -5.16844,3.79326 -2.32521,2.08629 -5.46516,4.32664 -6.97766,4.97856 -1.5125,0.65192 -2.75,1.88788 -2.75,2.74658 0,2.28553 -3.46169,8.68724 -5.88042,10.87467 -1.15129,1.04119 -4.46167,2.5046 -7.35641,3.25203 -4.05268,1.0464 -6.02972,2.27845 -8.59611,5.35693 -3.32183,3.98466 -3.35688,3.99797 -10.52749,3.99797 -4.7068,0 -7.91923,0.50758 -9.29029,1.46791 -2.72292,1.9072 -8.92836,2.63465 -13.34928,1.56491 z m 7.5,-19.82839 c 2.75,-0.46113 6.8,-1.76303 9,-2.89311 2.2,-1.13009 5.125,-2.38423 6.5,-2.787 1.375,-0.40276 4.83319,-3.048 7.68486,-5.87831 2.85167,-2.8303 6.33917,-6.14243 7.75,-7.36028 1.93343,-1.66896 2.56514,-3.17108 2.56514,-6.09952 0,-2.6098 0.93314,-5.27466 2.84252,-8.11766 2.60758,-3.88259 2.75924,-4.59633 1.83497,-8.63542 -0.74463,-3.25403 -0.6689,-5.42914 0.29021,-8.33527 1.17768,-3.56839 1.10042,-4.25158 -0.83497,-7.38309 -1.173,-1.89796 -2.13273,-4.57335 -2.13273,-5.9453 0,-1.37195 -1.39383,-4.24384 -3.09739,-6.38197 -1.70357,-2.13812 -3.73618,-5.11738 -4.51693,-6.62057 -1.48365,-2.85652 -6.07188,-5.75882 -9.73931,-6.16063 -1.1805,-0.12933 -3.62303,-1.71744 -5.42785,-3.52913 -2.38709,-2.39618 -3.87196,-3.13955 -5.44796,-2.72742 -1.19157,0.3116 -2.7524,0.0803 -3.46852,-0.51405 -2.45377,-2.03644 -1.44647,4.42455 1.66658,10.68976 1.63274,3.286 2.98274,7.01277 3,8.28172 0.0173,1.26895 0.55038,4.36833 1.18472,6.88752 0.95913,3.80905 0.88925,5.10446 -0.41498,7.69282 -0.86258,1.71186 -1.83267,5.36248 -2.15576,8.11248 -0.3696,3.14597 -1.64074,6.50419 -3.42805,9.05656 -1.56235,2.2311 -3.16648,5.3811 -3.56475,7 -0.41398,1.68277 -3.21073,5.29908 -6.52991,8.44344 -3.19319,3.025 -6.07274,6.625 -6.399,8 -0.32627,1.375 -1.9912,4.1875 -3.69986,6.25 -2.951,3.56213 -3.40359,3.75 -9.033837,3.75 -3.259958,0 -5.927196,0.40114 -5.927196,0.89142 0,1.08763 7.04445,3.98668 12.500003,5.14421 4.15304,0.88117 10.42408,0.60683 19,-0.8312 z m -58.319888,-24.70039 1.137237,-2.49597 1.468159,2.09609 c 1.31613,1.87904 2.2656,2.05984 9.169215,1.74597 6.602927,-0.3002 8.227526,-0.75169 11.393116,-3.16624 2.030632,-1.54886 5.273732,-3.07278 7.206888,-3.38648 3.485653,-0.56565 7.445273,-4.22537 7.445273,-6.88138 0,-0.72283 1.59391,-2.52998 3.54201,-4.01587 4.16198,-3.1745 8.00976,-10.86276 8.95859,-17.90016 0.99769,-7.39989 1.07372,-16.59943 0.16481,-19.94222 l -0.8,-2.94222 -2.98339,3.19222 c -1.64087,1.75572 -3.39903,3.19222 -3.90703,3.19222 -0.50799,0 -1.66794,1.4625 -2.57766,3.25 -2.27028,4.46087 -12.138194,13.67891 -15.304738,14.29681 -1.425927,0.27825 -4.73033,1.61905 -7.343117,2.97955 -3.47155,1.80767 -6.324384,2.47364 -10.596362,2.47364 -3.281851,0 -7.211183,0.68112 -8.958793,1.55295 -3.875491,1.93334 -9.268286,1.08942 -13.015794,-2.03685 -2.353512,-1.96337 -3.709932,-2.21479 -11.178529,-2.072 l -8.5,0.16251 0.03286,5.01404 c 0.02805,4.28142 0.612516,5.76934 4,10.18323 2.18193,2.84306 4.867145,5.42986 5.967145,5.74846 1.1,0.3186 4.475,2.1248 7.5,4.01379 6.727849,4.20127 13.067796,7.38248 14.771439,7.41191 0.699291,0.0121 1.783195,-1.10122 2.408676,-2.474 z M 190.96338,159.7267 c 11.42754,-16.27285 11.69257,-16.83853 11.04726,-23.57947 -0.38188,-3.98914 -0.15343,-7.58081 0.61785,-9.71376 1.04826,-2.8989 0.98212,-3.65132 -0.4611,-5.24606 -0.98903,-1.09287 -1.95641,-4.45956 -2.34233,-8.15184 -0.60911,-5.82765 -0.885,-6.38657 -3.7529,-7.6028 -1.7025,-0.72201 -5.32742,-3.59385 -8.05536,-6.381866 -5.34843,-5.466198 -11.98327,-8.681764 -15.89025,-7.701176 -1.99192,0.49994 -2.54787,0.169424 -3.04469,-1.810084 -0.4982,-1.984955 -1.58147,-2.623834 -6.00655,-3.542478 -4.58295,-0.951416 -6.58493,-0.824316 -13.24867,0.84112 -11.31599,2.828146 -19.12795,5.968258 -22.62809,9.095624 -4.55132,4.06661 -3.28514,5.62166 5.15346,6.32912 9.39567,0.7877 20.8236,5.23075 22.67812,8.81699 0.93988,1.81752 2.48273,2.86848 4.86794,3.31595 4.15494,0.77947 7.57863,4.69509 7.57863,8.66755 0,2.21877 0.96813,3.48319 4.55825,5.95326 4.98026,3.42651 6.44175,6.11227 6.44175,11.83793 0,2.85886 0.71158,4.42954 3,6.62199 2.65964,2.5481 3,3.53368 3,8.68709 0,5.50427 0.13026,5.81291 2.45332,5.81291 1.40934,0 3.12567,-0.95745 4.03336,-2.25 z M 71.976697,132.56999 c 3.3,-0.73505 7.35,-2.06647 9,-2.95871 1.65,-0.89224 3.9,-1.6273 5,-1.63346 4.249636,-0.0238 16.374533,-11.45992 14.324073,-13.51038 -0.342454,-0.34245 -4.925834,-1.02977 -10.185282,-1.52736 -10.9482,-1.03581 -16.000797,-2.82321 -19.83242,-7.01591 -1.677099,-1.83515 -3.68739,-2.94747 -5.326923,-2.94747 -2.891795,0 -8.479448,-4.85506 -8.479448,-7.367712 0,-0.836855 -2.25,-3.736343 -5,-6.443307 -4.860526,-4.784463 -5,-5.083679 -5,-10.726629 0,-3.988473 -0.515723,-6.374743 -1.64815,-7.626061 -0.906483,-1.001652 -2.016172,-4.149275 -2.465976,-6.994717 -1.213574,-7.677026 -2.359409,-8.144079 -6.971325,-2.841579 -2.152663,2.475 -4.600181,6.075 -5.438929,8 -0.838748,1.925 -2.39573,5.132606 -3.459961,7.128012 -1.06423,1.995407 -2.235358,6.56003 -2.602506,10.143606 -0.634315,6.191283 -0.543168,6.597087 1.831209,8.152838 2.383402,1.561665 2.437462,1.80893 1.171087,5.356394 -2.337663,6.548445 -1.858128,8.660435 2.642651,11.638905 2.615504,1.73086 4.710581,4.2077 5.89356,6.96748 1.29307,3.01661 2.783086,4.67447 5.042248,5.61025 1.763734,0.73056 5.004208,2.82999 7.201054,4.66541 3.060559,2.55702 4.965635,3.35354 8.149652,3.4074 2.285462,0.0387 5.055386,0.45702 6.155386,0.92971 2.680177,1.15171 3.07568,1.13563 10,-0.40671 z M 100.25945,101.8843 c 0.16676,-0.87582 -1.403645,-3.864026 -3.48978,-6.640456 -3.774881,-5.023976 -3.792091,-5.090314 -3.608112,-13.907602 0.287975,-13.801396 1.577034,-21.60574 4.098023,-24.810658 1.358063,-1.726497 2.218564,-4.219345 2.220854,-6.433748 0.005,-4.795499 2.947765,-9.397883 7.726375,-12.08361 3.07978,-1.730931 4.47222,-3.517542 6.66576,-8.552682 4.17667,-9.587273 3.92768,-9.924326 -7.58245,-10.264156 -9.463882,-0.279417 -9.733094,-0.22412 -13.038588,2.678142 -1.85635,1.629897 -5.152604,3.676977 -7.325009,4.549066 -5.138613,2.062841 -13.380282,11.992532 -15.671668,18.881468 -0.947013,2.847147 -1.734513,7.703445 -1.75,10.791772 -0.01942,3.871565 -0.59633,6.355672 -1.857941,8 -3.271001,4.263279 -3.201352,5.550022 0.708575,13.090684 5.593709,10.787999 9.903006,16.655984 13.457265,18.324809 1.740169,0.817059 5.863943,3.021135 9.163943,4.897951 6.347817,3.6102 9.782913,4.10429 10.282753,1.47902 z m 16.19489,-13.377336 c 2.2224,-3.008352 5.04909,-5.998589 6.28154,-6.64497 1.23245,-0.646382 3.8592,-2.910003 5.83721,-5.03027 2.82257,-3.025555 4.33465,-3.855029 7.02749,-3.855029 1.88711,0 4.49576,-0.74571 5.797,-1.657134 2.05003,-1.435897 10.35103,-3.234425 23.18216,-5.02274 2.32474,-0.324007 5.34038,0.21023 8.5,1.505825 4.63628,1.9011 22.39696,3.951087 22.39696,2.585121 0,-0.330329 -0.92476,-3.645164 -2.05502,-7.3663 -1.39542,-4.594116 -2.75954,-7.144397 -4.25,-7.945547 -1.20724,-0.648913 -3.21162,-2.736704 -4.45417,-4.639534 -1.76759,-2.706848 -2.92858,-3.459691 -5.33534,-3.459691 -2.252,0 -3.89693,-0.927098 -6.13979,-3.460449 -2.8125,-3.176775 -3.40772,-3.413289 -7.26084,-2.885161 -3.00889,0.412416 -5.46883,0.01278 -8.68878,-1.411558 -3.89359,-1.72232 -4.81276,-1.808897 -6.90383,-0.650275 -1.32673,0.735115 -3.4618,1.352518 -4.74462,1.372008 -1.28281,0.01949 -5.33281,1.337769 -9,2.929511 -3.66718,1.591742 -8.09223,3.194176 -9.83342,3.560965 -2.50013,0.52666 -3.50041,1.50313 -4.75707,4.643818 -1.00983,2.523809 -2.86752,4.729949 -5.08419,6.037811 -1.92111,1.133485 -3.49293,2.821284 -3.49293,3.750664 0,0.92938 -0.93776,3.472431 -2.0839,5.651224 -2.42384,4.607647 -3.47105,13.864235 -2.47257,21.855761 0.89632,7.173874 2.31596,7.199492 7.53411,0.13595 z"
       id="path3337"
       inkscape:connector-curvature="0" />
    <path
       style="fill:#000000"
       d="m 108.41031,221.47969 c -3.61152,-0.71999 -8.11152,-2.25102 -10.000006,-3.40229 -1.888484,-1.15127 -4.176519,-2.09491 -5.084523,-2.09696 -0.908004,-0.002 -4.283004,-1.96606 -7.5,-4.36445 -7.165032,-5.3418 -8.802731,-6.18695 -13.705846,-7.07301 -2.121219,-0.38333 -5.046219,-1.21512 -6.5,-1.84842 -1.453781,-0.63331 -5.80243,-1.1664 -9.663665,-1.18466 -6.471683,-0.0306 -7.409648,-0.31776 -12,-3.67378 -2.738765,-2.00231 -6.773432,-4.38629 -8.965926,-5.29772 -5.428412,-2.25663 -8.343708,-5.21688 -9.550209,-9.69748 -0.738439,-2.74235 -2.162449,-4.53564 -5.238764,-6.5973 -3.327487,-2.22999 -4.397349,-3.6739 -5.037767,-6.79909 -0.447202,-2.18231 -1.275478,-5.31783 -1.840613,-6.96783 -0.565136,-1.65 -1.622999,-6.15 -2.350807,-10 -1.2293296,-6.50298 -1.1873942,-7.19238 0.590613,-9.70951 2.338314,-3.31035 2.351243,-3.72108 0.213219,-6.77354 C 9.7758511,133.13802 9.4731571,131.76558 8.8011385,122.50537 8.37728,116.66473 7.8313682,115.00574 5.4352852,112.27675 1.5295983,107.82842 0.77968417,103.07948 3.0518928,97.183557 4.3059447,93.92955 4.7847754,90.382333 4.6031767,85.691519 4.3546685,79.27239 4.5041554,78.753464 7.3741282,76.072508 9.159743,74.404494 10.781054,71.577257 11.315151,69.200166 c 0.837159,-3.72592 7.564886,-13.223471 9.367036,-13.223471 0.430081,0 2.158433,-1.900159 3.840783,-4.222575 2.124569,-2.932882 2.884236,-4.918165 2.48722,-6.5 -0.314719,-1.253943 -0.113632,-2.277425 0.447455,-2.277425 0.560479,0 1.019052,0.45 1.019052,1 0,1.489788 8.565785,1.208267 12.435757,-0.408711 1.948862,-0.814286 3.667612,-2.396649 4.073221,-3.75 0.385936,-1.287709 2.836043,-4.591289 5.444684,-7.341289 2.60864,-2.75 5.765698,-6.716234 7.015684,-8.813854 1.249986,-2.09762 4.130741,-4.965951 6.401678,-6.374069 2.270937,-1.408118 6.378976,-4.270732 9.128976,-6.361364 5.566346,-4.2317034 7.813263,-4.7818262 14.77786,-3.6181306 4.324993,0.7226514 5.078906,0.5450069 7.953963,-1.874194 2.76313,-2.3250207 3.767199,-2.593449 7.72214,-2.0644391 2.50032,0.3344411 7.87881,0.9028859 11.95219,1.2632108 4.07338,0.3603249 8.12338,1.2506835 9,1.9785747 0.87662,0.7278911 3.85236,3.3219319 6.61276,5.7645342 4.62445,4.092051 5.68547,4.54328 13.5,5.741225 4.6646,0.71507 11.44814,1.185117 15.07454,1.044547 7.6686,-0.297256 10.40066,0.552874 15.13474,4.709455 2.24569,1.971739 4.99037,3.244289 7.8611,3.644738 6.48894,0.905167 9.02076,2.496563 11.0011,6.914832 0.99492,2.219735 3.44026,5.087548 5.57328,6.536152 2.73035,1.854266 4.30497,3.978878 5.59181,7.544934 0.98519,2.730116 2.20217,5.863848 2.7044,6.963848 1.73331,3.796333 3.32791,14.019817 3.18637,20.428785 -0.097,4.389854 0.36178,7.197622 1.44639,8.852942 0.8736,1.333287 1.96585,5.094718 2.42721,8.358735 0.62931,4.452172 1.60226,6.804056 3.89505,9.415403 3.47572,3.95862 3.51105,4.09212 4.96997,18.7813 1.14447,11.52316 1.32917,10.55159 -3.62013,19.04343 -0.67939,1.16567 -1.24189,4.06218 -1.25,6.43667 -0.0158,4.63076 -1.18687,6.45605 -11.66941,18.18862 -2.83507,3.17315 -5.6634,6.71993 -6.28519,7.88174 -0.85768,1.6026 -2.0839,2.11238 -5.08114,2.11238 -3.45501,0 -4.26358,0.47044 -6.44525,3.75 -2.91559,4.38282 -11.5445,12.09365 -15.95636,14.25868 -2.12394,1.04228 -3.47489,2.73126 -4.36999,5.46345 -2.25478,6.88244 -5.5127,10.16839 -11.42658,11.52488 -4.14387,0.95049 -6.17958,2.16541 -9.45532,5.643 -4.14197,4.39718 -4.22406,4.43036 -10.53086,4.25685 -4.23076,-0.11639 -7.41624,0.37322 -9.52584,1.46414 -3.71956,1.92346 -10.16193,1.97077 -19.33519,0.14199 z m 21.08065,-20.40617 c 3.03285,-1.5589 6.96363,-3.15269 8.73507,-3.54176 2.25256,-0.49475 4.06213,-1.96214 6.01948,-4.88123 1.53928,-2.29561 4.46229,-4.96077 6.49557,-5.92258 3.73038,-1.7646 4.10387,-2.49488 5.10473,-9.9813 0.27427,-2.05153 1.66601,-5.26051 3.09275,-7.13106 2.44464,-3.20508 2.52421,-3.66226 1.38128,-7.93557 -1.02015,-3.81422 -0.9593,-5.17993 0.38304,-8.5972 1.51256,-3.85061 1.49297,-4.19345 -0.37551,-6.56883 -1.08425,-1.3784 -2.22251,-4.20068 -2.52947,-6.27174 -0.30697,-2.07105 -1.84932,-5.41984 -3.42747,-7.44174 -1.57814,-2.02191 -3.42365,-4.89276 -4.10114,-6.37967 -1.13091,-2.48209 -7.97319,-6.44414 -11.12874,-6.44414 -0.64369,0 -2.44453,-1.35 -4.00186,-3 -1.57363,-1.66727 -3.86814,-3 -5.16497,-3 -1.28339,0 -3.04525,-0.27314 -3.91523,-0.60699 -2.38291,-0.91441 -2.06343,5.2778 0.52345,10.14555 4.21467,7.93076 6.18718,22.14394 3.39476,24.46144 -0.98398,0.81663 -1.5,3.04684 -1.5,6.4829 0,3.98804 -0.61868,6.14968 -2.59259,9.0584 -1.42592,2.10122 -3.63692,6.18182 -4.91333,9.068 -1.62156,3.66665 -3.53906,6.05386 -6.36464,7.92374 -2.81558,1.86326 -4.56157,4.03162 -5.74817,7.13867 -0.93734,2.45439 -2.9389,5.78423 -4.44791,7.39963 -2.41211,2.58217 -3.35342,2.91055 -7.789826,2.71752 -8.605295,-0.37442 -8.287534,2.09477 0.608319,4.72701 3.161477,0.93546 6.198147,1.86949 6.748147,2.07561 0.55,0.20612 5.275,0.14187 10.5,-0.14277 7.83466,-0.42681 10.46664,-1.01439 15.01426,-3.35189 z M 64.028397,178.81381 c 0.608142,-1.91609 0.792668,-1.97314 1.617078,-0.5 0.743838,1.32916 2.498161,1.66289 8.741365,1.66289 6.810454,0 8.30889,-0.3401 11.70031,-2.65563 2.139251,-1.4606 5.914547,-3.16487 8.389547,-3.78726 3.873183,-0.97399 4.788427,-1.72711 6.570653,-5.40672 1.13886,-2.35131 3.33163,-5.1023 4.87281,-6.1133 3.50357,-2.29831 8.29697,-12.02631 8.59769,-17.44864 1.14885,-20.71506 -0.0287,-25.73392 -4.65183,-19.82665 -1.39385,1.78101 -3.09006,3.2382 -3.76935,3.2382 -0.67929,0 -2.03015,1.80208 -3.00191,4.00463 -0.97176,2.20254 -2.74587,4.51418 -3.942453,5.13696 -1.196586,0.62279 -3.403032,2.59373 -4.903216,4.37988 -1.81114,2.15638 -3.995115,3.47694 -6.5,3.93028 -2.074816,0.3755 -5.53205,1.83161 -7.68274,3.23579 -3.324254,2.1704 -4.652891,2.46512 -8.864538,1.96631 -3.398705,-0.40253 -5.844559,-0.12632 -7.789994,0.8797 -4.570961,2.36374 -10.067265,1.84718 -14.903137,-1.40063 -3.694249,-2.48108 -4.771841,-2.75409 -8.004154,-2.02784 -2.054348,0.46158 -5.038525,0.47103 -6.631504,0.021 -1.59298,-0.45003 -3.458827,-0.625 -4.146327,-0.38883 -1.595234,0.54802 -1.656445,8.63043 -0.08769,11.57849 2.460829,4.62448 7.447367,9.91216 10.583292,11.22243 1.800776,0.75242 5.645131,2.9418 8.543012,4.8653 9.097009,6.03825 14.080581,7.15937 15.263084,3.43364 z M 193.38636,156.86814 c 1.42469,-2.53471 4.27542,-7.07765 6.33497,-10.09541 3.69936,-5.42053 3.73213,-5.55445 2.71074,-11.07961 -0.81405,-4.40363 -0.7322,-6.31477 0.38496,-8.98851 1.28447,-3.07418 1.24295,-3.62453 -0.43852,-5.81183 -1.1689,-1.52054 -1.86558,-4.09422 -1.87957,-6.94357 -0.0236,-4.81072 -2.16588,-8.97251 -4.61853,-8.97251 -0.81558,0 -4.56567,-2.89534 -8.33354,-6.434102 -6.98154,-6.557013 -11.43967,-8.535568 -15.98323,-7.093496 -1.62762,0.516586 -2.08694,0.234301 -2.08694,-1.282575 0,-3.472851 -2.75272,-4.639446 -10.87218,-4.607599 -13.12161,0.05147 -34.12782,8.351824 -34.12782,13.485203 0,2.407279 0.57711,2.639259 9.5,3.818679 9.23927,1.22123 19.61905,5.20341 20.62068,7.91108 0.86631,2.34186 3.81465,4.20281 6.65859,4.20281 2.74038,0 4.90126,2.87855 5.66547,7.54707 0.54638,3.33777 1.36792,4.47697 4.68753,6.5 4.85679,2.95981 5.5565,4.12606 6.4311,10.71909 0.46239,3.48568 1.4351,5.82322 3.05739,7.34728 1.96205,1.84326 2.37924,3.22748 2.37924,7.89421 0,3.11246 0.32133,5.98034 0.71406,6.37308 0.39273,0.39273 2.03958,0.58023 3.65966,0.41666 2.32608,-0.23484 3.49039,-1.26666 5.53594,-4.90595 z M 78.516464,131.01853 c 1.946871,-0.98481 5.029466,-2.11776 6.850211,-2.51767 6.932091,-1.52254 16.195665,-10.25265 14.783645,-13.9323 -0.337872,-0.88048 -3.388072,-1.46922 -9.382738,-1.81102 -9.849163,-0.56157 -17.214802,-3.1431 -20.353762,-7.13365 -1.14119,-1.45078 -3.382825,-2.62275 -5.73644,-2.99911 -4.187356,-0.66958 -6.560619,-2.725751 -7.673348,-6.648085 -0.390074,-1.375 -2.799287,-4.359258 -5.353806,-6.631684 -4.519013,-4.019983 -4.645321,-4.290336 -4.671999,-10 -0.02007,-4.295885 -0.626844,-6.837778 -2.264474,-9.48635 -1.230381,-1.989919 -2.237056,-4.990614 -2.237056,-6.668213 0,-7.647814 -3.084464,-8.199178 -8.188601,-1.463753 -5.688442,7.506474 -9.94467,17.756794 -10.543661,25.392409 -0.486724,6.204498 -0.374845,6.688821 1.697014,7.346404 1.71832,0.545373 2.066061,1.189233 1.54335,2.857591 -0.371108,1.184478 -0.886118,4.403601 -1.144468,7.153601 -0.463087,4.92932 -0.414037,5.03363 3.469889,7.37935 2.474084,1.49424 4.63281,3.89094 5.803047,6.44276 1.340739,2.92363 3.123459,4.72317 6.355522,6.4155 2.470651,1.29365 5.645274,3.4569 7.054719,4.80724 1.927768,1.84692 3.66389,2.45894 7.007908,2.47046 2.444904,0.008 5.120281,0.46944 5.945281,1.02448 2.10627,1.41704 12.757608,0.16814 17.039767,-1.99796 z m 21.782856,-29.34124 c 0.18868,-0.98968 -1.482811,-4.217761 -3.714428,-7.173516 -3.669665,-4.860436 -3.958173,-5.658985 -3.018461,-8.354646 0.725318,-2.080648 0.713948,-4.187785 -0.03766,-6.979033 -0.737405,-2.738514 -0.757692,-4.837493 -0.06438,-6.661044 0.556766,-1.464405 1.012302,-4.506225 1.012302,-6.759598 0,-2.526777 0.925019,-5.675469 2.413504,-8.215376 1.327427,-2.265083 2.709812,-5.904619 3.071966,-8.087857 1.000637,-6.032246 2.458787,-8.25964 7.448037,-11.377171 3.80736,-2.379029 5.03298,-3.967099 7.37255,-9.552863 2.13559,-5.098754 2.53722,-7.023417 1.6809,-8.055211 -1.73287,-2.087981 -6.44143,-2.742047 -14.15973,-1.966928 -5.625885,0.564985 -7.447416,1.180716 -9.093485,3.073861 -1.132113,1.302045 -4.009599,3.112529 -6.394412,4.023298 -3.015917,1.151789 -5.988982,3.592252 -9.765333,8.015949 -5.78691,6.778909 -7.82227,11.862156 -9.140288,22.827582 -0.393878,3.276923 -1.550912,7.326923 -2.571187,9 -2.33938,3.836184 -2.339398,5.6616 -8.3e-5,8.657099 1.024342,1.311673 2.211792,3.509859 2.638779,4.884859 1.359936,4.37932 9.606771,15.010912 12.860205,16.579018 1.726217,0.832012 5.838577,3.06355 9.138577,4.958977 6.416906,3.68569 9.769611,4.06329 10.322627,1.1626 z m 16.5516,-13.152294 c 2.13082,-2.974712 5.16832,-5.944602 6.75,-6.599755 1.58168,-0.655153 2.87578,-1.478691 2.87578,-1.830085 0,-2.123666 5.30198,-5.911133 9.13225,-6.523618 2.37352,-0.379542 5.08942,-1.390464 6.03532,-2.246493 0.97988,-0.886778 4.86332,-1.910217 9.02613,-2.378742 4.01846,-0.452279 8.6563,-1.34126 10.3063,-1.975513 3.39275,-1.304159 9.56558,-0.621593 12.8204,1.417625 1.19878,0.751063 6.5671,1.667831 11.9296,2.037261 11.07405,0.762907 10.71911,1.096848 7.91739,-7.448981 -2.11694,-6.457098 -10.56281,-16 -14.16068,-16 -1.21369,0 -3.74691,-1.540202 -5.62938,-3.422671 -3.06814,-3.068143 -3.96413,-3.411584 -8.65,-3.315642 -3.13317,0.06415 -6.69399,-0.596481 -8.88833,-1.649035 -3.36633,-1.614724 -3.90562,-1.629563 -6.70034,-0.184358 -1.67164,0.864438 -4.07419,1.576102 -5.339,1.581475 -1.26481,0.0054 -4.67946,1.117687 -7.58811,2.471809 -2.90865,1.354123 -7.09763,2.949203 -9.30885,3.544623 -3.4277,0.922983 -4.30428,1.744841 -5.94599,5.574784 -1.37401,3.205447 -2.75982,4.78302 -4.83801,5.50748 -2.34393,0.8171 -3.13836,1.912522 -4.06987,5.611896 -0.63659,2.528139 -1.808,5.525425 -2.60314,6.660634 -1.00474,1.434467 -1.44153,4.817513 -1.43204,11.091511 0.0232,15.358988 1.86748,17.140413 8.36057,8.075795 z"
       id="path3335"
       inkscape:connector-curvature="0" />
  </g>
</svg>
